<?xml version="1.0" standalone="no"?>
<!DOCTYPE svg PUBLIC "-//W3C//DTD SVG 20010904//EN"
 "http://www.w3.org/TR/2001/REC-SVG-20010904/DTD/svg10.dtd">
<svg version="1.0" xmlns="http://www.w3.org/2000/svg"
 width="1720.000000pt" height="1720.000000pt" viewBox="0 0 1720.000000 1720.000000"
 preserveAspectRatio="xMidYMid meet">
<metadata>
Created by potrace 1.14, written by Peter Selinger 2001-2017
</metadata>
<g transform="translate(0.000000,1720.000000) scale(0.100000,-0.100000)"
fill="#000000" stroke="none">
<path d="M8248 17195 c-1 -1 -64 -6 -138 -10 -74 -4 -148 -9 -165 -10 -16 -1
-66 -5 -110 -9 -44 -4 -96 -8 -115 -11 -19 -2 -60 -7 -90 -10 -74 -8 -127 -14
-175 -21 -22 -3 -51 -7 -65 -9 -38 -5 -113 -17 -135 -21 -11 -2 -36 -6 -55 -9
-47 -7 -86 -13 -140 -25 -25 -5 -62 -12 -83 -15 -21 -3 -129 -25 -240 -50
-1008 -225 -1985 -634 -2822 -1184 -71 -47 -137 -90 -146 -96 -33 -20 -166
-114 -236 -166 -39 -30 -81 -61 -93 -69 -12 -8 -31 -23 -43 -32 -12 -9 -67
-52 -122 -95 -55 -42 -102 -80 -105 -83 -3 -3 -30 -25 -60 -50 -30 -25 -60
-49 -66 -55 -6 -5 -33 -29 -61 -52 -53 -45 -59 -51 -192 -172 -113 -102 -427
-416 -526 -525 -44 -49 -87 -96 -95 -105 -15 -15 -104 -118 -148 -171 -118
-142 -196 -240 -283 -357 -57 -76 -107 -139 -111 -141 -5 -2 -8 -8 -8 -13 0
-5 -24 -42 -53 -82 -29 -39 -66 -92 -82 -117 -17 -25 -33 -49 -38 -55 -9 -12
-32 -49 -129 -200 -287 -453 -550 -980 -755 -1515 -73 -190 -193 -548 -218
-650 -2 -8 -14 -49 -25 -90 -30 -106 -58 -211 -81 -310 -12 -47 -23 -93 -25
-102 -2 -10 -6 -28 -9 -40 -2 -13 -11 -54 -19 -93 -9 -38 -18 -83 -21 -100 -3
-16 -12 -64 -20 -105 -22 -116 -29 -155 -40 -235 -4 -22 -10 -67 -15 -100 -5
-33 -12 -82 -15 -110 -4 -27 -8 -61 -11 -75 -2 -14 -6 -52 -9 -85 -4 -33 -8
-74 -10 -91 -2 -16 -7 -66 -10 -110 -4 -43 -8 -95 -10 -114 -27 -237 -27
-1000 -1 -1290 3 -25 7 -81 11 -125 6 -79 10 -121 20 -200 2 -22 7 -65 10 -95
3 -30 12 -97 21 -148 8 -52 19 -124 24 -160 5 -37 12 -78 15 -92 3 -14 7 -39
9 -55 3 -17 7 -42 10 -55 3 -14 8 -36 10 -50 56 -315 186 -804 311 -1170 46
-134 161 -438 195 -515 10 -22 37 -85 60 -140 109 -259 361 -743 527 -1015 36
-58 70 -114 76 -124 7 -11 16 -25 20 -30 4 -6 44 -67 88 -136 45 -69 85 -126
90 -128 5 -2 9 -10 9 -18 0 -8 4 -14 8 -14 4 0 16 -15 27 -32 38 -67 346 -470
448 -588 12 -14 39 -45 61 -70 213 -248 488 -532 710 -735 55 -49 104 -95 110
-100 6 -6 56 -49 111 -95 55 -47 102 -87 105 -90 4 -5 191 -154 235 -188 6 -4
49 -38 98 -75 48 -37 91 -67 96 -67 5 0 11 -4 13 -8 4 -11 262 -190 378 -263
47 -29 87 -57 88 -61 2 -5 7 -8 11 -8 5 0 67 -36 140 -80 286 -174 706 -390
1021 -525 47 -20 94 -40 105 -45 163 -73 648 -244 890 -314 130 -37 347 -96
377 -101 11 -2 27 -6 36 -9 9 -3 31 -8 47 -10 17 -3 57 -13 89 -21 33 -9 76
-18 95 -21 20 -3 56 -10 81 -16 25 -5 56 -12 70 -14 14 -3 61 -11 105 -19 84
-15 134 -23 175 -30 14 -2 57 -8 95 -14 171 -26 409 -53 585 -66 374 -28 961
-28 1310 0 140 11 207 17 235 20 17 2 75 9 130 15 87 10 321 43 395 56 31 5
48 8 240 45 198 38 202 39 222 45 9 3 25 6 35 8 55 11 217 50 273 66 36 11
124 35 195 55 144 40 519 164 660 218 106 41 238 93 280 112 28 12 64 26 75
30 3 1 32 14 65 29 33 15 92 41 130 59 93 42 422 206 510 255 76 41 200 111
227 127 9 6 47 28 85 49 37 22 101 61 142 88 41 26 75 48 77 48 2 0 33 20 70
45 36 25 67 45 70 45 3 0 10 5 17 10 7 6 73 53 147 105 74 51 140 97 145 102
6 4 64 48 130 98 66 49 129 97 140 107 11 9 54 44 95 78 114 94 120 99 190
159 36 30 72 62 81 71 9 8 56 51 105 95 111 100 401 391 515 516 125 136 137
149 178 198 20 24 41 49 46 55 50 54 215 262 316 396 162 216 157 210 276 390
57 85 106 160 111 165 15 19 235 391 273 460 147 272 226 436 379 780 37 84
124 306 175 445 58 160 158 467 170 520 2 8 17 62 34 120 64 227 166 682 186
830 3 19 7 45 9 58 3 13 15 89 26 170 12 81 23 158 25 172 2 14 7 54 10 90 4
36 9 79 11 95 2 17 6 66 9 110 4 44 8 91 10 104 26 162 26 1080 1 1311 -4 30
-12 119 -21 235 -4 47 -30 252 -40 320 -3 17 -7 48 -10 70 -5 39 -14 90 -22
130 -2 11 -6 38 -9 60 -18 127 -99 498 -153 708 -204 782 -533 1563 -942 2241
-46 77 -91 151 -99 165 -16 28 -209 320 -222 336 -4 6 -60 82 -124 169 -117
161 -271 358 -373 476 -31 36 -67 78 -81 94 -190 222 -469 503 -774 781 -73
67 -317 269 -451 373 -98 76 -186 142 -190 142 -3 0 -13 6 -22 14 -49 40 -123
92 -278 194 -93 62 -175 116 -180 121 -6 4 -15 10 -20 12 -6 2 -62 35 -125 73
-253 153 -667 370 -920 483 -234 105 -527 219 -795 308 -185 62 -462 146 -528
160 -9 2 -45 11 -80 20 -34 9 -69 18 -77 20 -8 2 -58 13 -110 25 -113 26 -206
46 -246 54 -16 3 -40 7 -54 10 -14 3 -65 12 -115 21 -49 8 -97 17 -105 20 -8
2 -37 7 -65 10 -27 3 -63 7 -80 10 -16 3 -43 7 -60 10 -16 3 -50 7 -75 10 -25
3 -76 10 -115 15 -38 5 -101 12 -140 15 -38 4 -81 8 -95 10 -14 2 -72 7 -130
11 -58 3 -123 8 -145 11 -48 5 -852 13 -857 8z"/>
</g>
</svg>
