<svg id="svg" version="1.1" xmlns="http://www.w3.org/2000/svg" xmlns:xlink="http://www.w3.org/1999/xlink" width="400" height="400" viewBox="0, 0, 400,400"><g id="svgg"><path id="path0" d="M51.512 158.590 C 41.462 160.257,35.912 167.580,38.110 176.272 C 39.554 181.981,43.169 184.399,53.743 186.730 C 61.876 188.522,64.304 190.183,64.301 193.953 C 64.299 197.933,61.664 200.118,56.206 200.669 C 49.170 201.378,45.042 198.806,43.843 192.965 L 43.712 192.326 39.731 192.326 L 35.750 192.326 35.904 193.832 C 36.823 202.806,43.493 208.046,53.953 208.013 C 67.006 207.971,74.740 200.233,72.089 189.867 C 70.610 184.084,66.899 181.625,55.814 179.082 C 47.944 177.277,45.706 175.755,45.742 172.232 C 45.831 163.442,62.424 163.528,63.848 172.326 C 64.183 174.393,63.702 174.186,68.167 174.186 L 72.139 174.186 71.971 172.733 C 70.838 162.928,62.038 156.845,51.512 158.590 M333.837 158.590 C 323.788 160.257,318.238 167.580,320.436 176.272 C 321.879 181.981,325.494 184.399,336.068 186.730 C 344.201 188.522,346.629 190.183,346.627 193.953 C 346.625 197.933,343.990 200.118,338.531 200.669 C 331.496 201.378,327.368 198.806,326.169 192.965 L 326.038 192.326 322.056 192.326 L 318.075 192.326 318.230 193.832 C 319.149 202.806,325.818 208.046,336.279 208.013 C 349.332 207.971,357.066 200.233,354.414 189.867 C 352.935 184.084,349.224 181.625,338.140 179.082 C 330.270 177.277,328.032 175.755,328.068 172.232 C 328.157 163.442,344.750 163.528,346.174 172.326 C 346.509 174.393,346.028 174.186,350.492 174.186 L 354.464 174.186 354.296 172.733 C 353.164 162.928,344.364 156.845,333.837 158.590 M81.550 159.457 C 81.465 159.543,81.395 170.322,81.395 183.411 L 81.395 207.209 92.267 207.208 C 104.010 207.206,106.172 207.049,109.111 205.983 C 119.133 202.345,120.513 188.644,111.342 183.825 L 109.735 182.981 110.623 182.541 C 114.245 180.748,116.251 177.460,116.456 172.982 C 116.822 165.003,112.055 160.312,102.791 159.534 C 99.786 159.282,81.791 159.217,81.550 159.457 M126.667 159.457 C 126.581 159.543,126.512 170.322,126.512 183.411 L 126.512 207.209 130.581 207.209 L 134.651 207.209 134.651 197.791 L 134.651 188.372 140.212 188.372 L 145.773 188.372 150.614 197.791 L 155.456 207.209 160.176 207.209 L 164.896 207.209 164.509 206.453 C 164.297 206.038,161.954 201.773,159.304 196.977 C 156.654 192.180,154.369 188.033,154.226 187.761 C 153.990 187.308,154.060 187.232,155.065 186.853 C 160.243 184.900,163.256 180.112,163.256 173.837 C 163.256 165.402,158.359 160.324,149.465 159.537 C 146.574 159.281,126.912 159.212,126.667 159.457 M171.783 159.457 C 171.698 159.543,171.628 170.322,171.628 183.411 L 171.628 207.209 175.698 207.209 L 179.767 207.209 179.767 183.256 L 179.767 159.302 175.853 159.302 C 173.700 159.302,171.868 159.372,171.783 159.457 M191.318 159.457 C 191.233 159.543,191.163 170.322,191.163 183.411 L 191.163 207.209 195.233 207.209 L 199.302 207.209 199.312 200.640 L 199.321 194.070 203.556 189.708 L 207.791 185.346 215.432 196.278 L 223.074 207.209 228.049 207.209 C 230.785 207.209,233.023 207.159,233.023 207.097 C 233.023 207.035,228.670 200.842,223.350 193.336 C 218.029 185.830,213.629 179.567,213.572 179.418 C 213.515 179.269,217.659 174.735,222.781 169.342 C 227.902 163.949,232.093 159.484,232.093 159.420 C 232.093 159.355,229.749 159.302,226.885 159.302 L 221.676 159.302 215.664 165.988 C 212.357 169.666,207.349 175.184,204.535 178.251 L 199.419 183.828 199.358 171.565 L 199.298 159.302 195.386 159.302 C 193.234 159.302,191.403 159.372,191.318 159.457 M238.295 159.457 C 238.209 159.543,238.140 170.322,238.140 183.411 L 238.140 207.209 242.209 207.209 L 246.279 207.209 246.289 200.640 L 246.298 194.070 250.533 189.708 L 254.767 185.346 262.409 196.278 L 270.051 207.209 275.025 207.209 C 277.761 207.209,280.000 207.159,280.000 207.097 C 280.000 207.035,275.647 200.842,270.326 193.336 C 265.006 185.830,260.606 179.567,260.549 179.418 C 260.492 179.269,264.635 174.735,269.757 169.342 C 274.879 163.949,279.070 159.484,279.070 159.420 C 279.070 159.355,276.726 159.302,273.861 159.302 L 268.653 159.302 262.641 165.988 C 259.334 169.666,254.326 175.184,251.512 178.251 L 246.395 183.828 246.335 171.565 L 246.275 159.302 242.362 159.302 C 240.210 159.302,238.380 159.372,238.295 159.457 M285.039 159.457 C 284.953 159.543,284.884 170.322,284.884 183.411 L 284.884 207.209 288.953 207.209 L 293.023 207.209 293.023 183.256 L 293.023 159.302 289.109 159.302 C 286.955 159.302,285.124 159.372,285.039 159.457 M304.563 160.872 C 304.367 161.735,303.469 165.519,302.568 169.281 C 301.667 173.043,300.930 176.208,300.930 176.316 C 300.930 176.424,302.395 176.512,304.186 176.512 C 305.977 176.512,307.442 176.480,307.442 176.441 C 307.442 176.402,308.698 172.680,310.233 168.168 C 311.767 163.657,313.023 159.817,313.023 159.634 C 313.023 159.359,312.326 159.302,308.972 159.302 L 304.921 159.302 304.563 160.872 M104.702 167.403 C 109.338 169.257,109.754 176.141,105.365 178.360 C 103.814 179.145,102.213 179.302,95.803 179.302 L 89.535 179.302 89.535 173.008 L 89.535 166.713 96.453 166.792 C 103.020 166.867,103.440 166.898,104.702 167.403 M150.599 167.318 C 156.776 169.152,156.621 178.678,150.385 180.510 C 149.718 180.707,147.154 180.797,142.093 180.804 L 134.767 180.814 134.706 173.895 L 134.644 166.977 142.047 166.977 C 147.876 166.977,149.695 167.049,150.599 167.318 M105.377 187.358 C 108.895 188.984,110.237 192.894,108.482 196.407 C 107.005 199.363,105.546 199.767,96.346 199.767 L 89.535 199.767 89.535 193.241 L 89.535 186.715 96.919 186.788 C 103.886 186.856,104.363 186.888,105.377 187.358 " stroke="none" fill="#cac9c9" fill-rule="evenodd"></path><path id="path1" d="M189.419 0.141 C 182.941 0.607,180.961 0.778,177.442 1.176 C 84.937 11.637,11.613 84.961,1.177 177.442 C 0.213 185.980,0.116 188.045,0.116 200.000 C 0.116 211.955,0.213 214.020,1.177 222.558 C 11.613 315.035,84.965 388.387,177.442 398.823 C 185.980 399.787,188.045 399.884,200.000 399.884 C 211.955 399.884,214.020 399.787,222.558 398.823 C 315.035 388.387,388.387 315.035,398.823 222.558 C 399.787 214.020,399.884 211.955,399.884 200.000 C 399.884 138.916,373.292 83.049,325.814 44.385 C 295.188 19.445,257.740 4.398,216.744 0.561 C 212.938 0.205,192.833 -0.104,189.419 0.141 M60.691 159.064 C 67.377 160.993,72.093 166.870,72.093 173.271 L 72.093 174.186 68.056 174.186 L 64.018 174.186 63.878 173.005 C 62.825 164.107,46.588 162.992,45.860 171.768 C 45.561 175.380,47.613 176.992,54.627 178.655 C 68.184 181.870,71.717 184.486,72.567 191.936 C 73.676 201.665,66.379 207.965,53.953 208.008 C 43.157 208.045,36.379 202.629,35.781 193.488 L 35.698 192.209 39.758 192.209 L 43.818 192.209 44.083 193.529 C 45.016 198.188,48.543 200.701,54.139 200.696 C 60.586 200.690,64.196 198.330,64.181 194.130 C 64.168 190.512,62.028 188.788,55.698 187.297 C 47.229 185.303,45.105 184.613,42.842 183.121 C 35.324 178.165,35.826 166.650,43.794 161.271 C 47.788 158.575,55.504 157.567,60.691 159.064 M343.017 159.064 C 349.702 160.993,354.419 166.870,354.419 173.271 L 354.419 174.186 350.381 174.186 L 346.344 174.186 346.204 173.005 C 345.150 164.107,328.914 162.992,328.186 171.768 C 327.887 175.380,329.938 176.992,336.953 178.655 C 350.509 181.870,354.043 184.486,354.892 191.936 C 356.002 201.665,348.705 207.965,336.279 208.008 C 325.483 208.045,318.704 202.629,318.107 193.488 L 318.023 192.209 322.084 192.209 L 326.144 192.209 326.408 193.529 C 327.341 198.188,330.868 200.701,336.465 200.696 C 342.912 200.690,346.521 198.330,346.507 194.130 C 346.494 190.512,344.353 188.788,338.023 187.297 C 329.555 185.303,327.431 184.613,325.167 183.121 C 317.649 178.165,318.151 166.650,326.120 161.271 C 330.114 158.575,337.830 157.567,343.017 159.064 M106.395 159.867 C 113.930 161.756,117.918 167.791,116.392 174.996 C 115.718 178.178,113.429 181.325,110.949 182.477 L 109.921 182.954 111.396 183.740 C 119.914 188.280,119.459 201.208,110.633 205.449 C 107.215 207.091,106.088 207.203,92.965 207.206 L 81.395 207.209 81.395 183.240 L 81.395 159.272 93.081 159.365 C 103.240 159.447,104.980 159.512,106.395 159.867 M151.514 159.658 C 159.086 160.979,163.351 166.049,163.342 173.721 C 163.335 180.153,160.192 185.186,155.052 186.998 C 153.969 187.379,153.417 186.134,159.747 197.582 L 165.076 207.218 160.181 207.156 L 155.286 207.093 150.492 197.739 L 145.698 188.385 140.291 188.379 L 134.884 188.372 134.884 197.791 L 134.884 207.209 130.698 207.209 L 126.512 207.209 126.512 183.256 L 126.512 159.302 137.993 159.302 C 147.253 159.302,149.869 159.371,151.514 159.658 M180.000 183.256 L 180.000 207.209 175.814 207.209 L 171.628 207.209 171.628 183.256 L 171.628 159.302 175.814 159.302 L 180.000 159.302 180.000 183.256 M199.535 171.393 L 199.535 183.483 201.247 181.683 C 203.411 179.408,211.595 170.403,217.209 164.120 L 221.512 159.305 226.968 159.304 L 232.424 159.302 231.369 160.407 C 230.789 161.015,227.347 164.651,223.720 168.488 C 220.094 172.326,216.303 176.309,215.297 177.341 L 213.467 179.217 222.925 192.574 C 228.127 199.920,232.586 206.218,232.835 206.570 L 233.287 207.209 228.097 207.200 L 222.907 207.191 215.351 196.386 C 211.194 190.443,207.735 185.607,207.663 185.639 C 207.591 185.671,205.733 187.575,203.533 189.869 L 199.535 194.039 199.535 200.624 L 199.535 207.209 195.349 207.209 L 191.163 207.209 191.163 183.256 L 191.163 159.302 195.349 159.302 L 199.535 159.302 199.535 171.393 M246.512 171.393 L 246.512 183.483 248.224 181.683 C 250.388 179.408,258.572 170.403,264.186 164.120 L 268.488 159.305 273.945 159.304 L 279.401 159.302 278.346 160.407 C 277.766 161.015,274.324 164.651,270.697 168.488 C 267.070 172.326,263.280 176.309,262.274 177.341 L 260.444 179.217 269.902 192.574 C 275.104 199.920,279.563 206.218,279.812 206.570 L 280.264 207.209 275.074 207.200 L 269.884 207.191 262.327 196.386 C 258.171 190.443,254.712 185.607,254.640 185.639 C 254.568 185.671,252.709 187.575,250.510 189.869 L 246.512 194.039 246.512 200.624 L 246.512 207.209 242.326 207.209 L 238.140 207.209 238.140 183.256 L 238.140 159.302 242.326 159.302 L 246.512 159.302 246.512 171.393 M293.256 183.256 L 293.256 207.209 289.070 207.209 L 284.884 207.209 284.884 183.256 L 284.884 159.302 289.070 159.302 L 293.256 159.302 293.256 183.256 M313.256 159.460 C 313.256 159.600,307.943 175.311,307.548 176.337 C 307.410 176.699,307.017 176.744,304.029 176.744 C 300.938 176.744,300.675 176.711,300.780 176.337 C 300.842 176.113,301.745 172.320,302.787 167.907 C 303.828 163.494,304.723 159.753,304.775 159.593 C 304.877 159.280,313.256 159.148,313.256 159.460 M89.535 173.036 L 89.535 179.095 96.686 179.024 C 106.677 178.925,108.253 178.091,108.241 172.907 C 108.230 167.978,106.204 166.977,96.237 166.977 L 89.535 166.977 89.535 173.036 M134.884 173.832 L 134.884 180.721 142.500 180.651 C 149.885 180.584,150.152 180.565,151.304 180.044 C 156.555 177.667,156.183 169.178,150.750 167.411 C 150.173 167.224,147.382 167.098,142.384 167.036 L 134.884 166.943 134.884 173.832 M89.535 193.256 L 89.535 199.808 96.686 199.714 C 107.254 199.575,109.315 198.437,109.024 192.897 C 108.759 187.856,106.890 186.941,96.570 186.800 L 89.535 186.703 89.535 193.256 M206.768 215.028 C 211.362 216.391,214.088 219.613,214.760 224.477 L 214.912 225.581 212.112 225.581 L 209.311 225.581 209.174 224.942 C 208.395 221.298,206.177 219.671,201.977 219.662 C 197.048 219.652,194.206 221.968,195.095 225.271 C 195.661 227.371,197.321 228.252,203.140 229.542 C 210.696 231.218,213.488 233.820,213.488 239.187 C 213.488 251.487,192.888 252.794,189.910 240.683 C 189.248 237.989,189.107 238.140,192.289 238.140 L 195.042 238.140 195.330 239.424 C 196.667 245.399,207.377 245.611,207.854 239.672 C 208.056 237.144,206.547 236.139,200.157 234.548 C 191.397 232.367,188.477 229.273,189.332 223.081 C 190.206 216.754,198.960 212.712,206.768 215.028 M273.605 215.005 C 283.943 217.763,289.020 229.754,284.160 239.937 C 278.344 252.124,259.388 252.091,253.488 239.884 C 248.732 230.044,253.512 218.089,263.345 215.230 C 266.388 214.346,270.773 214.249,273.605 215.005 M312.209 215.005 C 322.548 217.763,327.625 229.754,322.765 239.937 C 316.949 252.124,297.992 252.091,292.093 239.884 C 287.337 230.044,292.117 218.089,301.950 215.230 C 304.992 214.346,309.378 214.249,312.209 215.005 M228.762 222.685 L 234.061 230.255 237.030 227.261 L 240.000 224.267 240.000 219.692 L 240.000 215.116 242.791 215.116 L 245.581 215.116 245.581 231.744 L 245.581 248.372 242.791 248.372 L 240.000 248.372 240.000 239.981 C 240.000 235.365,239.916 231.624,239.814 231.667 C 239.543 231.779,236.061 235.550,229.918 242.383 L 224.535 248.371 220.851 248.371 L 217.166 248.372 218.176 247.252 C 218.732 246.636,221.616 243.575,224.586 240.450 C 227.555 237.324,230.015 234.708,230.051 234.635 C 230.087 234.562,227.081 230.226,223.372 224.999 C 219.663 219.772,216.593 215.410,216.550 215.306 C 216.508 215.202,218.046 215.116,219.969 215.116 L 223.464 215.116 228.762 222.685 M354.186 231.744 L 354.186 248.372 346.453 248.368 C 336.564 248.363,334.898 248.035,332.220 245.566 C 328.387 242.033,329.319 234.342,333.829 232.287 L 334.420 232.018 333.306 231.381 C 330.273 229.649,328.840 226.695,329.315 223.154 C 329.854 219.129,331.851 216.851,335.821 215.730 C 337.712 215.196,337.849 215.189,346.337 215.151 L 354.186 215.116 354.186 231.744 M267.011 219.999 C 254.370 221.917,254.542 241.698,267.216 243.545 C 273.278 244.429,278.753 240.432,279.774 234.377 C 281.253 225.610,275.173 218.760,267.011 219.999 M305.616 219.999 C 292.974 221.917,293.146 241.698,305.821 243.545 C 311.882 244.429,317.358 240.432,318.379 234.377 C 319.858 225.610,313.777 218.760,305.616 219.999 M338.488 220.450 C 334.482 221.425,333.506 226.531,336.941 228.550 C 338.022 229.186,338.028 229.186,343.314 229.260 L 348.605 229.334 348.605 224.783 L 348.605 220.233 343.895 220.256 C 341.305 220.269,338.872 220.357,338.488 220.450 M338.256 234.935 C 334.424 236.294,334.565 241.755,338.463 242.912 C 339.308 243.163,340.827 243.256,344.112 243.256 L 348.605 243.256 348.605 238.953 L 348.605 234.651 343.779 234.670 C 341.013 234.680,338.656 234.793,338.256 234.935 " stroke="none" fill="#3c0c0c" fill-rule="evenodd"></path><path id="path2" d="M101.689 159.469 C 102.043 159.523,102.566 159.521,102.852 159.466 C 103.138 159.411,102.849 159.367,102.209 159.369 C 101.570 159.371,101.336 159.416,101.689 159.469 M148.433 159.469 C 148.787 159.523,149.310 159.521,149.596 159.466 C 149.882 159.411,149.593 159.367,148.953 159.369 C 148.314 159.371,148.080 159.416,148.433 159.469 M179.879 183.256 C 179.879 196.494,179.908 201.910,179.942 195.291 C 179.976 188.672,179.976 177.840,179.942 171.221 C 179.908 164.602,179.879 170.017,179.879 183.256 M199.411 171.512 C 199.411 178.291,199.440 181.030,199.477 177.600 C 199.513 174.169,199.513 168.623,199.477 165.274 C 199.440 161.926,199.411 164.733,199.411 171.512 M246.387 171.512 C 246.387 178.291,246.417 181.030,246.453 177.600 C 246.490 174.169,246.490 168.623,246.453 165.274 C 246.417 161.926,246.387 164.733,246.387 171.512 M293.135 183.256 C 293.135 196.494,293.163 201.910,293.198 195.291 C 293.232 188.672,293.232 177.840,293.198 171.221 C 293.163 164.602,293.135 170.017,293.135 183.256 M219.171 161.919 L 218.488 162.674 219.244 161.991 C 219.660 161.616,220.000 161.276,220.000 161.236 C 220.000 161.056,219.808 161.214,219.171 161.919 M266.148 161.919 L 265.465 162.674 266.221 161.991 C 266.925 161.355,267.084 161.163,266.904 161.163 C 266.864 161.163,266.524 161.503,266.148 161.919 M228.829 162.965 L 227.558 164.302 228.895 163.031 C 230.138 161.850,230.339 161.628,230.166 161.628 C 230.130 161.628,229.528 162.230,228.829 162.965 M275.806 162.965 L 274.535 164.302 275.872 163.031 C 277.114 161.850,277.316 161.628,277.143 161.628 C 277.107 161.628,276.505 162.230,275.806 162.965 M66.977 162.398 C 66.977 162.438,67.317 162.778,67.733 163.154 L 68.488 163.837 67.805 163.081 C 67.169 162.377,66.977 162.219,66.977 162.398 M349.302 162.398 C 349.302 162.438,349.642 162.778,350.058 163.154 L 350.814 163.837 350.131 163.081 C 349.494 162.377,349.302 162.219,349.302 162.398 M112.558 162.863 C 112.558 162.903,112.898 163.244,113.314 163.619 L 114.070 164.302 113.387 163.547 C 112.750 162.842,112.558 162.684,112.558 162.863 M224.411 167.616 L 223.140 168.953 224.477 167.682 C 225.719 166.501,225.920 166.279,225.748 166.279 C 225.712 166.279,225.110 166.881,224.411 167.616 M271.387 167.616 L 270.116 168.953 271.453 167.682 C 272.696 166.501,272.897 166.279,272.725 166.279 C 272.688 166.279,272.087 166.881,271.387 167.616 M92.733 166.918 C 94.555 166.957,97.538 166.957,99.360 166.918 C 101.183 166.879,99.692 166.847,96.047 166.847 C 92.401 166.847,90.910 166.879,92.733 166.918 M134.762 173.837 L 134.767 180.814 141.395 180.820 L 148.023 180.825 141.457 180.758 L 134.891 180.690 134.824 173.775 L 134.757 166.860 134.762 173.837 M116.588 172.209 C 116.589 173.105,116.631 173.442,116.681 172.960 C 116.732 172.477,116.731 171.745,116.679 171.332 C 116.628 170.919,116.587 171.314,116.588 172.209 M219.992 172.267 L 218.721 173.605 220.058 172.334 C 221.300 171.153,221.502 170.930,221.329 170.930 C 221.293 170.930,220.691 171.532,219.992 172.267 M266.969 172.267 L 265.698 173.605 267.035 172.334 C 268.277 171.153,268.479 170.930,268.306 170.930 C 268.270 170.930,267.668 171.532,266.969 172.267 M37.496 172.558 C 37.496 173.006,37.544 173.189,37.602 172.965 C 37.661 172.741,37.661 172.375,37.602 172.151 C 37.544 171.927,37.496 172.110,37.496 172.558 M319.821 172.558 C 319.821 173.006,319.869 173.189,319.928 172.965 C 319.986 172.741,319.986 172.375,319.928 172.151 C 319.869 171.927,319.821 172.110,319.821 172.558 M163.332 173.605 C 163.333 174.500,163.375 174.838,163.426 174.355 C 163.476 173.873,163.475 173.140,163.424 172.727 C 163.372 172.315,163.331 172.709,163.332 173.605 M208.706 173.547 L 208.023 174.302 208.779 173.619 C 209.484 172.983,209.642 172.791,209.462 172.791 C 209.422 172.791,209.082 173.131,208.706 173.547 M255.683 173.547 L 255.000 174.302 255.756 173.619 C 256.460 172.983,256.619 172.791,256.439 172.791 C 256.399 172.791,256.059 173.131,255.683 173.547 M206.381 176.105 L 205.698 176.860 206.453 176.177 C 206.869 175.802,207.209 175.462,207.209 175.422 C 207.209 175.242,207.017 175.400,206.381 176.105 M215.806 176.686 L 214.535 178.023 215.872 176.752 C 217.114 175.571,217.316 175.349,217.143 175.349 C 217.107 175.349,216.505 175.951,215.806 176.686 M253.357 176.105 L 252.674 176.860 253.430 176.177 C 254.135 175.541,254.293 175.349,254.113 175.349 C 254.073 175.349,253.733 175.689,253.357 176.105 M262.783 176.686 L 261.512 178.023 262.849 176.752 C 264.091 175.571,264.293 175.349,264.120 175.349 C 264.084 175.349,263.482 175.951,262.783 176.686 M300.697 176.570 C 300.697 176.666,302.241 176.725,304.128 176.701 C 307.578 176.658,307.166 176.571,302.965 176.457 C 301.717 176.423,300.697 176.474,300.697 176.570 M203.823 178.895 L 203.140 179.651 203.895 178.968 C 204.311 178.592,204.651 178.252,204.651 178.212 C 204.651 178.033,204.459 178.191,203.823 178.895 M250.799 178.895 L 250.116 179.651 250.872 178.968 C 251.577 178.331,251.735 178.140,251.555 178.140 C 251.515 178.140,251.175 178.480,250.799 178.895 M92.733 179.244 C 94.555 179.283,97.538 179.283,99.360 179.244 C 101.183 179.204,99.692 179.172,96.047 179.172 C 92.401 179.172,90.910 179.204,92.733 179.244 M200.930 181.977 C 200.365 182.552,199.955 183.023,200.019 183.023 C 200.083 183.023,200.598 182.552,201.163 181.977 C 201.728 181.401,202.138 180.930,202.074 180.930 C 202.010 180.930,201.495 181.401,200.930 181.977 M247.907 181.977 C 247.342 182.552,246.932 183.023,246.996 183.023 C 247.060 183.023,247.575 182.552,248.140 181.977 C 248.704 181.401,249.114 180.930,249.050 180.930 C 248.986 180.930,248.472 181.401,247.907 181.977 M69.070 184.535 C 69.504 184.983,69.911 185.349,69.975 185.349 C 70.039 185.349,69.736 184.983,69.302 184.535 C 68.868 184.087,68.461 183.721,68.397 183.721 C 68.333 183.721,68.636 184.087,69.070 184.535 M351.395 184.535 C 351.829 184.983,352.237 185.349,352.301 185.349 C 352.364 185.349,352.062 184.983,351.628 184.535 C 351.194 184.087,350.787 183.721,350.723 183.721 C 350.659 183.721,350.961 184.087,351.395 184.535 M205.226 187.965 L 203.605 189.651 205.291 188.029 C 206.857 186.523,207.083 186.279,206.912 186.279 C 206.877 186.279,206.118 187.038,205.226 187.965 M252.203 187.965 L 250.581 189.651 252.267 188.029 C 253.833 186.523,254.060 186.279,253.889 186.279 C 253.854 186.279,253.095 187.038,252.203 187.965 M134.757 197.791 C 134.757 203.035,134.788 205.213,134.825 202.632 C 134.863 200.050,134.863 195.760,134.825 193.097 C 134.788 190.434,134.757 192.547,134.757 197.791 M35.664 192.446 C 35.587 192.647,35.589 192.876,35.669 192.956 C 35.749 193.036,35.814 192.926,35.814 192.713 C 35.814 192.254,43.575 192.109,43.800 192.564 C 43.865 192.695,43.892 192.669,43.859 192.506 C 43.760 192.016,35.851 191.959,35.664 192.446 M200.277 193.094 L 199.295 194.095 199.361 200.710 L 199.426 207.326 199.481 200.706 L 199.535 194.087 200.514 193.090 C 201.052 192.542,201.440 192.093,201.376 192.093 C 201.312 192.093,200.818 192.543,200.277 193.094 M247.254 193.094 L 246.272 194.095 246.337 200.710 L 246.403 207.326 246.457 200.706 L 246.512 194.087 247.490 193.090 C 248.029 192.542,248.417 192.093,248.353 192.093 C 248.289 192.093,247.794 192.543,247.254 193.094 M317.989 192.446 C 317.912 192.647,317.915 192.876,317.995 192.956 C 318.074 193.036,318.140 192.926,318.140 192.713 C 318.140 192.254,325.900 192.109,326.126 192.564 C 326.191 192.695,326.217 192.669,326.184 192.506 C 326.085 192.016,318.177 191.959,317.989 192.446 M109.128 193.372 C 109.131 193.884,109.179 194.066,109.234 193.776 C 109.290 193.487,109.288 193.068,109.230 192.846 C 109.171 192.624,109.126 192.860,109.128 193.372 M64.249 193.953 C 64.249 194.529,64.295 194.765,64.350 194.477 C 64.406 194.189,64.406 193.718,64.350 193.430 C 64.295 193.142,64.249 193.378,64.249 193.953 M72.612 193.721 C 72.612 194.169,72.660 194.352,72.718 194.128 C 72.777 193.904,72.777 193.538,72.718 193.314 C 72.660 193.090,72.612 193.273,72.612 193.721 M346.575 193.953 C 346.575 194.529,346.620 194.765,346.676 194.477 C 346.731 194.189,346.731 193.718,346.676 193.430 C 346.620 193.142,346.575 193.378,346.575 193.953 M354.938 193.721 C 354.938 194.169,354.986 194.352,355.044 194.128 C 355.103 193.904,355.103 193.538,355.044 193.314 C 354.986 193.090,354.938 193.273,354.938 193.721 M68.825 202.965 L 68.023 203.837 68.895 203.036 C 69.707 202.290,69.874 202.093,69.697 202.093 C 69.658 202.093,69.265 202.485,68.825 202.965 M351.150 202.965 L 350.349 203.837 351.221 203.036 C 352.033 202.290,352.200 202.093,352.022 202.093 C 351.984 202.093,351.591 202.485,351.150 202.965 M199.612 214.658 C 192.603 215.538,188.577 219.968,189.308 225.994 C 189.857 230.515,192.579 232.661,200.157 234.548 C 206.547 236.139,208.056 237.144,207.854 239.672 C 207.377 245.611,196.667 245.399,195.330 239.424 L 195.042 238.140 192.289 238.140 C 189.107 238.140,189.248 237.989,189.910 240.683 C 192.888 252.794,213.488 251.487,213.488 239.187 C 213.488 233.820,210.696 231.218,203.140 229.542 C 197.321 228.252,195.661 227.371,195.095 225.271 C 194.206 221.968,197.048 219.652,201.977 219.662 C 206.177 219.671,208.395 221.298,209.174 224.942 L 209.311 225.581 212.112 225.581 L 214.912 225.581 214.760 224.477 C 213.770 217.312,208.042 213.600,199.612 214.658 M265.775 214.641 C 254.204 216.762,248.238 229.021,253.488 239.884 C 259.388 252.091,278.344 252.124,284.160 239.937 C 290.484 226.689,279.851 212.059,265.775 214.641 M304.379 214.641 C 292.809 216.762,286.842 229.021,292.093 239.884 C 297.992 252.091,316.949 252.124,322.765 239.937 C 329.088 226.689,318.456 212.059,304.379 214.641 M216.550 215.306 C 216.593 215.410,219.663 219.772,223.372 224.999 C 227.081 230.226,230.087 234.562,230.051 234.635 C 230.015 234.708,227.555 237.324,224.586 240.450 C 221.616 243.575,218.732 246.636,218.176 247.252 L 217.166 248.372 220.851 248.371 L 224.535 248.371 229.918 242.383 C 236.061 235.550,239.543 231.779,239.814 231.667 C 239.916 231.624,240.000 235.365,240.000 239.981 L 240.000 248.372 242.791 248.372 L 245.581 248.372 245.581 231.744 L 245.581 215.116 242.791 215.116 L 240.000 215.116 240.000 219.692 L 240.000 224.267 237.030 227.261 L 234.061 230.255 228.762 222.685 L 223.464 215.116 219.969 215.116 C 218.046 215.116,216.508 215.202,216.550 215.306 M337.791 215.279 C 333.834 215.803,330.630 218.087,329.725 221.027 C 328.372 225.420,329.727 229.337,333.306 231.381 L 334.420 232.018 333.829 232.287 C 329.319 234.342,328.387 242.033,332.220 245.566 C 334.898 248.035,336.564 248.363,346.453 248.368 L 354.186 248.372 354.186 231.744 L 354.186 215.116 346.337 215.151 C 342.020 215.170,338.174 215.228,337.791 215.279 M271.971 220.274 C 277.567 221.710,280.896 227.726,279.774 234.377 C 277.759 246.327,260.809 246.872,258.028 235.076 C 255.801 225.629,263.011 217.975,271.971 220.274 M310.576 220.274 C 316.172 221.710,319.501 227.726,318.379 234.377 C 316.363 246.327,299.414 246.872,296.633 235.076 C 294.406 225.629,301.616 217.975,310.576 220.274 M348.605 224.783 L 348.605 229.334 343.314 229.260 C 336.146 229.160,334.597 228.258,334.948 224.390 C 335.256 220.994,336.775 220.292,343.895 220.256 L 348.605 220.233 348.605 224.783 M348.605 238.953 L 348.605 243.256 344.112 243.256 C 337.265 243.256,335.561 242.409,335.533 238.991 C 335.505 235.412,336.871 234.696,343.779 234.670 L 348.605 234.651 348.605 238.953 " stroke="none" fill="#555353" fill-rule="evenodd"></path></g></svg>