<svg id="svg" version="1.1" xmlns="http://www.w3.org/2000/svg" xmlns:xlink="http://www.w3.org/1999/xlink" width="400" height="400" viewBox="0, 0, 400,400"><g id="svgg"><path id="path0" d="M244.600 125.600 C 244.464 125.820,243.204 126.000,241.800 126.000 C 240.396 126.000,239.136 126.180,239.000 126.400 C 238.864 126.620,237.503 126.800,235.976 126.800 C 234.392 126.800,233.200 126.972,233.200 127.200 C 233.200 127.420,232.221 127.600,231.024 127.600 C 229.827 127.600,228.736 127.780,228.600 128.000 C 228.464 128.220,227.204 128.400,225.800 128.400 C 224.396 128.400,223.136 128.580,223.000 128.800 C 222.864 129.020,221.604 129.200,220.200 129.200 C 218.796 129.200,217.536 129.380,217.400 129.600 C 217.264 129.820,216.004 130.000,214.600 130.000 C 213.196 130.000,211.936 130.180,211.800 130.400 C 211.664 130.620,210.404 130.800,209.000 130.800 C 207.596 130.800,206.336 130.980,206.200 131.200 C 206.064 131.420,204.624 131.600,203.000 131.600 C 201.376 131.600,199.936 131.780,199.800 132.000 C 199.664 132.220,198.314 132.400,196.800 132.400 C 195.286 132.400,193.936 132.580,193.800 132.800 C 193.664 133.020,192.404 133.200,191.000 133.200 C 189.596 133.200,188.336 133.380,188.200 133.600 C 188.064 133.820,186.739 134.000,185.256 134.000 C 183.773 134.000,182.389 134.164,182.180 134.365 C 181.816 134.715,180.052 134.959,174.400 135.442 C 172.970 135.565,171.629 135.830,171.420 136.032 C 171.211 136.235,169.827 136.400,168.344 136.400 C 166.861 136.400,165.536 136.580,165.400 136.800 C 165.264 137.020,164.004 137.200,162.600 137.200 C 161.196 137.200,159.936 137.380,159.800 137.600 C 159.664 137.820,158.404 138.000,157.000 138.000 C 155.596 138.000,154.336 138.180,154.200 138.400 C 154.064 138.620,152.624 138.800,151.000 138.800 C 149.376 138.800,147.936 138.980,147.800 139.200 C 147.664 139.420,146.429 139.600,145.056 139.600 C 143.683 139.600,142.389 139.764,142.180 139.965 C 141.971 140.165,140.810 140.429,139.600 140.551 C 137.532 140.760,135.751 141.000,128.700 142.019 C 127.105 142.250,124.540 142.534,123.000 142.651 C 121.460 142.767,120.029 143.028,119.820 143.231 C 119.611 143.434,118.407 143.600,117.144 143.600 C 115.881 143.600,114.736 143.780,114.600 144.000 C 114.464 144.220,113.024 144.400,111.400 144.400 C 109.776 144.400,108.336 144.580,108.200 144.800 C 108.064 145.020,106.894 145.200,105.600 145.200 C 104.306 145.200,103.136 145.380,103.000 145.600 C 102.864 145.820,101.424 146.000,99.800 146.000 C 98.176 146.000,96.736 146.180,96.600 146.400 C 96.464 146.620,95.204 146.800,93.800 146.800 C 92.396 146.800,91.136 146.980,91.000 147.200 C 90.864 147.420,89.899 147.600,88.856 147.600 C 87.813 147.600,86.789 147.768,86.580 147.973 C 86.371 148.179,84.850 148.383,83.200 148.428 C 81.550 148.473,80.020 148.648,79.800 148.818 C 79.425 149.107,77.912 149.282,71.000 149.837 C 69.460 149.961,68.029 150.228,67.820 150.431 C 67.611 150.634,66.317 150.800,64.944 150.800 C 63.571 150.800,62.336 150.980,62.200 151.200 C 62.064 151.420,60.714 151.600,59.200 151.600 C 57.686 151.600,56.336 151.780,56.200 152.000 C 56.064 152.220,54.624 152.400,53.000 152.400 C 51.376 152.400,49.936 152.580,49.800 152.800 C 49.664 153.020,48.404 153.200,47.000 153.200 C 45.596 153.200,44.336 153.380,44.200 153.600 C 44.064 153.820,42.804 154.000,41.400 154.000 C 39.996 154.000,38.736 154.180,38.600 154.400 C 38.464 154.620,37.114 154.800,35.600 154.800 C 34.086 154.800,32.736 154.980,32.600 155.200 C 32.464 155.420,31.103 155.600,29.576 155.600 C 27.992 155.600,26.800 155.772,26.800 156.000 C 26.800 156.220,26.001 156.400,25.024 156.400 C 24.047 156.400,23.136 156.580,23.000 156.800 C 22.864 157.020,22.324 157.200,21.800 157.200 C 21.276 157.200,20.736 157.380,20.600 157.600 C 20.464 157.820,20.031 158.000,19.638 158.000 C 18.726 158.000,16.632 159.039,15.993 159.808 C 15.723 160.134,15.327 160.400,15.112 160.400 C 14.898 160.400,13.905 161.120,12.905 162.000 C 11.905 162.880,10.946 163.600,10.772 163.600 C 10.240 163.600,6.762 168.415,7.007 168.812 C 7.134 169.017,7.814 168.524,8.519 167.716 C 14.647 160.692,19.023 158.403,28.600 157.210 C 30.580 156.963,33.550 156.506,35.200 156.194 C 38.510 155.569,41.767 155.112,43.000 155.100 C 43.440 155.095,44.520 154.947,45.400 154.770 C 46.280 154.593,47.900 154.346,49.000 154.221 C 50.100 154.096,51.900 153.821,53.000 153.609 C 54.100 153.397,56.890 153.031,59.200 152.795 C 64.047 152.300,66.702 151.935,72.000 151.036 C 76.397 150.289,80.239 149.693,84.200 149.141 C 85.740 148.926,88.080 148.598,89.400 148.413 C 90.720 148.227,94.320 147.777,97.400 147.412 C 103.745 146.660,108.077 146.074,116.400 144.842 C 117.830 144.630,120.350 144.265,122.000 144.031 C 125.784 143.493,129.450 142.951,132.873 142.423 C 134.344 142.196,137.044 141.813,138.873 141.572 C 140.703 141.331,143.280 140.986,144.600 140.806 C 145.920 140.626,148.710 140.278,150.800 140.033 C 152.890 139.788,155.770 139.403,157.200 139.176 C 159.776 138.767,162.857 138.349,168.129 137.692 C 169.630 137.505,170.980 137.183,171.129 136.976 C 171.278 136.769,172.390 136.587,173.600 136.571 C 174.810 136.554,177.240 136.323,179.000 136.056 C 180.760 135.789,183.550 135.401,185.200 135.194 C 186.850 134.986,189.370 134.623,190.800 134.387 C 194.313 133.807,197.748 133.368,203.000 132.828 C 205.420 132.579,208.300 132.198,209.400 131.980 C 210.500 131.763,213.380 131.323,215.800 131.002 C 227.852 129.404,232.271 128.792,233.013 128.619 C 233.886 128.414,238.888 127.787,244.400 127.189 C 246.270 126.986,248.757 126.702,249.926 126.557 C 251.143 126.406,252.427 126.469,252.926 126.703 C 253.407 126.928,254.970 127.392,256.400 127.733 C 257.830 128.074,261.610 129.182,264.800 130.196 C 267.990 131.209,272.220 132.462,274.200 132.980 C 276.180 133.498,278.610 134.183,279.600 134.501 C 280.590 134.820,282.750 135.489,284.400 135.988 C 286.050 136.487,287.760 137.033,288.200 137.202 C 288.640 137.371,289.810 137.730,290.800 138.000 C 291.790 138.270,292.960 138.642,293.400 138.827 C 293.840 139.012,295.010 139.366,296.000 139.613 C 300.339 140.698,301.038 140.898,301.695 141.239 C 302.077 141.438,302.741 141.600,303.171 141.600 C 303.601 141.600,304.064 141.780,304.200 142.000 C 304.336 142.220,304.941 142.400,305.544 142.400 C 306.147 142.400,306.811 142.553,307.020 142.741 C 307.229 142.929,308.300 143.305,309.400 143.578 C 310.500 143.851,311.760 144.219,312.200 144.397 C 313.391 144.877,315.180 145.448,317.200 145.993 C 318.190 146.260,319.313 146.640,319.695 146.839 C 320.077 147.038,320.743 147.200,321.176 147.200 C 321.608 147.200,322.376 147.368,322.881 147.573 C 323.387 147.778,325.690 148.516,328.000 149.214 C 330.310 149.912,332.560 150.623,333.000 150.796 C 333.440 150.968,334.610 151.330,335.600 151.601 C 336.590 151.871,337.850 152.231,338.400 152.400 C 338.950 152.569,340.120 152.903,341.000 153.143 C 342.821 153.640,354.103 157.127,359.200 158.770 C 361.070 159.372,363.590 160.093,364.800 160.372 C 366.010 160.651,367.990 161.203,369.200 161.599 C 370.410 161.996,372.750 162.724,374.400 163.217 C 376.050 163.711,378.390 164.427,379.600 164.808 C 385.609 166.702,387.178 167.157,389.295 167.622 C 394.128 168.682,394.421 173.435,389.848 176.585 C 387.826 177.977,382.457 180.400,381.393 180.400 C 381.104 180.400,380.448 180.754,379.934 181.186 C 379.420 181.618,378.448 182.416,377.774 182.959 C 371.352 188.132,367.814 203.642,369.642 218.600 C 370.234 223.441,370.171 223.366,374.904 224.826 C 377.157 225.521,379.771 226.339,380.714 226.645 C 381.657 226.950,382.606 227.200,382.823 227.200 C 384.820 227.200,396.704 232.850,398.412 234.612 C 400.872 237.151,399.484 238.127,390.800 239.963 C 388.710 240.405,386.280 240.968,385.400 241.214 C 384.520 241.459,383.080 241.813,382.200 242.000 C 381.320 242.187,379.880 242.552,379.000 242.811 C 378.120 243.070,376.724 243.372,375.897 243.483 C 375.071 243.594,374.295 243.845,374.174 244.042 C 374.052 244.239,373.413 244.400,372.753 244.400 C 372.055 244.400,371.656 244.567,371.800 244.800 C 372.107 245.297,373.708 245.325,374.220 244.841 C 374.429 244.644,375.365 244.374,376.300 244.241 C 377.235 244.108,378.765 243.890,379.700 243.755 C 380.635 243.620,381.592 243.356,381.827 243.167 C 382.061 242.978,382.840 242.779,383.557 242.725 C 384.274 242.670,384.948 242.485,385.054 242.313 C 385.160 242.141,385.856 242.000,386.600 242.000 C 387.344 242.000,388.052 241.839,388.174 241.642 C 388.295 241.445,389.071 241.182,389.897 241.058 C 393.768 240.473,394.639 240.274,395.161 239.853 C 395.470 239.604,396.035 239.453,396.416 239.517 C 399.199 239.989,401.413 234.628,398.943 233.396 C 398.471 233.161,397.791 232.725,397.432 232.427 C 396.517 231.667,389.943 228.400,389.330 228.400 C 389.052 228.400,388.183 228.040,387.400 227.600 C 386.617 227.160,385.632 226.800,385.211 226.800 C 384.791 226.800,384.336 226.620,384.200 226.400 C 384.064 226.180,383.511 226.000,382.971 226.000 C 382.025 226.000,381.659 225.872,379.705 224.862 C 379.213 224.608,378.446 224.400,378.000 224.400 C 377.554 224.400,376.877 224.242,376.495 224.049 C 375.492 223.542,373.040 222.800,372.369 222.800 C 371.388 222.800,370.859 220.772,370.647 216.200 C 370.534 213.780,370.323 211.032,370.178 210.092 C 370.031 209.140,370.088 208.167,370.307 207.892 C 370.523 207.622,370.734 205.780,370.775 203.800 C 370.816 201.820,371.018 200.029,371.225 199.820 C 371.431 199.611,371.600 198.576,371.600 197.520 C 371.600 196.464,371.780 195.600,372.000 195.600 C 372.220 195.600,372.400 195.071,372.400 194.424 C 372.400 193.777,372.580 193.136,372.800 193.000 C 373.020 192.864,373.200 192.439,373.200 192.055 C 373.200 191.158,375.061 187.413,375.819 186.784 C 376.139 186.519,376.400 186.091,376.400 185.832 C 376.400 185.159,379.151 182.637,380.800 181.798 C 383.384 180.483,383.587 180.400,384.200 180.400 C 384.536 180.400,385.123 180.236,385.505 180.035 C 385.887 179.834,387.192 179.212,388.405 178.652 C 393.240 176.420,395.640 171.291,393.100 168.618 C 391.881 167.334,389.389 166.000,388.211 166.000 C 387.681 166.000,387.136 165.820,387.000 165.600 C 386.864 165.380,386.234 165.200,385.600 165.200 C 384.966 165.200,384.336 165.020,384.200 164.800 C 384.064 164.580,383.511 164.400,382.971 164.400 C 382.431 164.400,381.632 164.220,381.195 164.000 C 380.758 163.780,380.042 163.420,379.605 163.200 C 379.168 162.980,378.268 162.800,377.605 162.800 C 376.942 162.800,376.400 162.620,376.400 162.400 C 376.400 162.180,375.860 162.000,375.200 162.000 C 374.540 162.000,374.000 161.820,374.000 161.600 C 374.000 161.380,373.471 161.200,372.824 161.200 C 372.177 161.200,371.536 161.020,371.400 160.800 C 371.264 160.580,370.724 160.400,370.200 160.400 C 369.676 160.400,369.136 160.220,369.000 160.000 C 368.864 159.780,368.144 159.600,367.400 159.600 C 366.656 159.600,365.936 159.420,365.800 159.200 C 365.664 158.980,365.124 158.800,364.600 158.800 C 364.076 158.800,363.536 158.620,363.400 158.400 C 363.264 158.180,362.544 158.000,361.800 158.000 C 361.056 158.000,360.336 157.820,360.200 157.600 C 360.064 157.380,359.524 157.200,359.000 157.200 C 358.476 157.200,357.936 157.020,357.800 156.800 C 357.664 156.580,357.034 156.400,356.400 156.400 C 355.766 156.400,355.136 156.220,355.000 156.000 C 354.864 155.780,354.223 155.600,353.576 155.600 C 352.929 155.600,352.400 155.420,352.400 155.200 C 352.400 154.980,351.871 154.800,351.224 154.800 C 350.577 154.800,349.936 154.620,349.800 154.400 C 349.664 154.180,349.124 154.000,348.600 154.000 C 348.076 154.000,347.536 153.820,347.400 153.600 C 347.264 153.380,346.771 153.200,346.305 153.200 C 345.404 153.200,343.061 152.535,341.905 151.951 C 341.523 151.758,340.769 151.600,340.229 151.600 C 339.689 151.600,339.136 151.420,339.000 151.200 C 338.864 150.980,338.234 150.800,337.600 150.800 C 336.966 150.800,336.336 150.620,336.200 150.400 C 336.064 150.180,335.434 150.000,334.800 150.000 C 334.166 150.000,333.536 149.820,333.400 149.600 C 333.264 149.380,332.634 149.200,332.000 149.200 C 331.366 149.200,330.736 149.020,330.600 148.800 C 330.464 148.580,329.913 148.400,329.376 148.400 C 328.839 148.400,328.400 148.220,328.400 148.000 C 328.400 147.780,327.871 147.600,327.224 147.600 C 326.577 147.600,325.936 147.420,325.800 147.200 C 325.664 146.980,325.124 146.800,324.600 146.800 C 324.076 146.800,323.536 146.620,323.400 146.400 C 323.264 146.180,322.533 146.000,321.776 146.000 C 321.019 146.000,320.400 145.820,320.400 145.600 C 320.400 145.380,319.871 145.200,319.224 145.200 C 318.577 145.200,317.936 145.020,317.800 144.800 C 317.664 144.580,317.034 144.400,316.400 144.400 C 315.766 144.400,315.136 144.220,315.000 144.000 C 314.864 143.780,314.324 143.600,313.800 143.600 C 313.276 143.600,312.736 143.420,312.600 143.200 C 312.464 142.980,311.834 142.800,311.200 142.800 C 310.566 142.800,309.936 142.620,309.800 142.400 C 309.664 142.180,309.124 142.000,308.600 142.000 C 308.076 142.000,307.536 141.820,307.400 141.600 C 307.264 141.380,306.724 141.200,306.200 141.200 C 305.676 141.200,305.136 141.020,305.000 140.800 C 304.864 140.580,304.234 140.400,303.600 140.400 C 302.966 140.400,302.336 140.220,302.200 140.000 C 302.064 139.780,301.434 139.600,300.800 139.600 C 300.166 139.600,299.536 139.420,299.400 139.200 C 299.264 138.980,298.634 138.800,298.000 138.800 C 297.366 138.800,296.736 138.620,296.600 138.400 C 296.464 138.180,295.823 138.000,295.176 138.000 C 294.529 138.000,294.000 137.820,294.000 137.600 C 294.000 137.380,293.471 137.200,292.824 137.200 C 292.177 137.200,291.536 137.020,291.400 136.800 C 291.264 136.580,290.634 136.400,290.000 136.400 C 289.366 136.400,288.736 136.220,288.600 136.000 C 288.464 135.780,287.834 135.600,287.200 135.600 C 286.566 135.600,285.936 135.420,285.800 135.200 C 285.664 134.980,285.113 134.800,284.576 134.800 C 284.039 134.800,283.600 134.620,283.600 134.400 C 283.600 134.180,283.071 134.000,282.424 134.000 C 281.777 134.000,281.136 133.820,281.000 133.600 C 280.864 133.380,280.234 133.200,279.600 133.200 C 278.966 133.200,278.336 133.020,278.200 132.800 C 278.064 132.580,277.434 132.400,276.800 132.400 C 276.166 132.400,275.536 132.220,275.400 132.000 C 275.264 131.780,274.724 131.600,274.200 131.600 C 273.676 131.600,273.136 131.420,273.000 131.200 C 272.864 130.980,272.324 130.800,271.800 130.800 C 271.276 130.800,270.736 130.620,270.600 130.400 C 270.464 130.180,269.733 130.000,268.976 130.000 C 268.219 130.000,267.600 129.820,267.600 129.600 C 267.600 129.380,267.060 129.200,266.400 129.200 C 265.740 129.200,265.200 129.020,265.200 128.800 C 265.200 128.580,264.658 128.400,263.995 128.400 C 263.332 128.400,262.432 128.220,261.995 128.000 C 261.558 127.780,260.842 127.420,260.405 127.200 C 259.968 126.980,259.068 126.800,258.405 126.800 C 257.742 126.800,257.200 126.620,257.200 126.400 C 257.200 126.180,256.581 126.000,255.824 126.000 C 255.067 126.000,254.336 125.820,254.200 125.600 C 254.059 125.371,252.004 125.200,249.400 125.200 C 246.796 125.200,244.741 125.371,244.600 125.600 M6.037 169.754 C 5.081 170.907,3.604 174.083,3.843 174.470 C 4.146 174.960,6.862 170.415,6.715 169.664 C 6.619 169.174,6.506 169.189,6.037 169.754 M24.000 174.255 C 15.893 175.791,11.850 186.809,13.195 203.703 C 14.274 217.256,18.318 226.655,24.428 229.814 C 25.560 230.400,26.376 230.640,34.600 232.810 C 37.020 233.449,40.260 234.348,41.800 234.809 C 44.273 235.548,45.744 235.974,51.600 237.646 C 52.370 237.865,53.540 238.199,54.200 238.388 C 54.860 238.576,57.200 239.208,59.400 239.792 C 61.600 240.376,64.930 241.304,66.800 241.854 C 68.670 242.404,71.100 243.110,72.200 243.423 C 73.300 243.736,75.460 244.359,77.000 244.807 C 78.540 245.255,81.870 246.167,84.400 246.833 C 86.930 247.500,92.690 249.095,97.200 250.378 C 101.710 251.661,105.850 252.802,106.400 252.914 C 106.950 253.026,108.660 253.478,110.200 253.918 C 122.129 257.329,125.957 258.437,127.000 258.781 C 127.660 258.999,130.000 259.648,132.200 260.222 C 136.123 261.247,137.494 261.621,140.100 262.377 C 142.041 262.940,147.030 264.373,150.200 265.279 C 151.740 265.719,154.890 266.597,157.200 267.231 C 159.510 267.864,162.660 268.740,164.200 269.176 C 173.706 271.870,173.198 271.930,173.204 268.113 C 173.206 266.621,173.396 260.450,173.625 254.400 C 174.959 219.239,175.170 222.063,171.115 220.808 C 169.512 220.312,163.250 218.292,157.200 216.319 C 151.150 214.346,143.410 211.830,140.000 210.729 C 136.590 209.627,133.440 208.584,133.000 208.411 C 132.560 208.238,126.530 206.256,119.600 204.007 C 112.670 201.758,102.140 198.328,96.200 196.384 C 85.827 192.991,81.883 191.707,57.000 183.626 C 50.840 181.625,41.948 178.719,37.239 177.168 C 29.041 174.467,26.191 173.840,24.000 174.255 M3.012 175.717 C 2.841 176.112,2.813 176.547,2.951 176.684 C 3.357 177.090,3.684 176.520,3.497 175.731 C 3.332 175.033,3.310 175.032,3.012 175.717 M2.178 177.714 C 1.802 178.694,2.419 179.466,2.897 178.613 C 3.152 178.156,3.138 177.778,2.855 177.495 C 2.550 177.190,2.354 177.254,2.178 177.714 M1.473 179.860 C 1.323 180.010,1.200 180.543,1.200 181.043 C 1.200 181.543,1.020 182.064,0.800 182.200 C 0.291 182.515,0.274 185.475,0.780 185.788 C 0.989 185.917,1.265 185.342,1.395 184.511 C 1.524 183.680,1.799 182.375,2.005 181.610 C 2.363 180.286,2.056 179.277,1.473 179.860 M357.400 186.436 C 353.220 187.286,348.000 188.359,345.800 188.821 C 336.716 190.728,334.422 191.207,330.800 191.952 C 328.710 192.382,325.830 192.944,324.400 193.201 C 322.970 193.458,320.649 193.938,319.241 194.268 C 317.834 194.597,315.854 195.010,314.841 195.185 C 313.829 195.360,308.770 196.406,303.600 197.511 C 298.430 198.616,292.580 199.810,290.600 200.164 C 288.620 200.519,286.280 200.979,285.400 201.188 C 284.520 201.397,282.045 201.935,279.900 202.384 C 277.755 202.833,274.245 203.570,272.100 204.022 C 269.955 204.475,267.390 205.013,266.400 205.218 C 265.410 205.423,263.430 205.856,262.000 206.180 C 260.570 206.504,258.320 206.945,257.000 207.161 C 255.680 207.377,252.800 207.940,250.600 208.411 C 243.991 209.828,235.601 211.569,232.200 212.230 C 226.269 213.382,219.028 214.855,214.600 215.811 C 209.374 216.940,196.379 219.594,190.200 220.794 C 183.434 222.109,182.833 222.309,182.625 223.314 C 182.063 226.025,181.006 271.600,181.505 271.600 C 181.673 271.600,185.048 270.781,189.005 269.779 C 192.962 268.778,198.090 267.507,200.400 266.955 C 206.399 265.521,209.740 264.684,217.000 262.800 C 220.520 261.886,225.560 260.633,228.200 260.016 C 230.840 259.398,238.400 257.533,245.000 255.870 C 251.600 254.207,262.850 251.403,270.000 249.638 C 277.150 247.874,286.960 245.442,291.800 244.235 C 296.640 243.027,302.490 241.572,304.800 241.000 C 307.110 240.428,313.680 238.778,319.400 237.333 C 325.120 235.888,330.430 234.563,331.200 234.389 C 331.970 234.214,333.680 233.796,335.000 233.458 C 342.929 231.432,354.012 228.682,358.782 227.558 C 362.219 226.748,363.369 226.197,362.969 225.550 C 362.847 225.352,362.514 222.268,362.230 218.695 C 361.209 205.886,362.665 193.871,366.055 187.116 C 367.468 184.302,367.782 184.326,357.400 186.436 M0.134 190.000 C 0.134 191.650,0.205 192.325,0.291 191.500 C 0.378 190.675,0.378 189.325,0.291 188.500 C 0.205 187.675,0.134 188.350,0.134 190.000 M0.120 202.800 C 0.120 204.010,0.195 204.505,0.287 203.900 C 0.378 203.295,0.378 202.305,0.287 201.700 C 0.195 201.095,0.120 201.590,0.120 202.800 M0.477 210.869 C 0.621 212.825,1.600 213.520,1.600 211.666 C 1.600 210.207,1.246 209.200,0.734 209.200 C 0.525 209.200,0.409 209.951,0.477 210.869 M1.411 214.071 C 1.026 215.012,1.304 216.506,1.900 216.702 C 2.467 216.889,2.533 215.460,2.015 214.200 C 1.722 213.488,1.656 213.474,1.411 214.071 M2.000 218.605 C 2.000 219.158,2.167 219.923,2.371 220.305 C 2.575 220.687,2.843 221.326,2.968 221.725 C 3.092 222.124,3.368 222.344,3.580 222.213 C 3.792 222.082,3.892 221.755,3.802 221.487 C 3.713 221.219,3.444 220.235,3.204 219.300 C 2.727 217.434,2.000 217.015,2.000 218.605 M3.600 223.576 C 3.600 224.003,3.780 224.464,4.000 224.600 C 4.220 224.736,4.400 225.202,4.400 225.636 C 4.400 226.070,4.650 226.521,4.956 226.638 C 5.262 226.756,5.426 227.179,5.321 227.581 C 5.216 227.982,5.326 228.431,5.565 228.578 C 5.804 228.726,6.000 229.119,6.000 229.452 C 6.000 229.784,6.540 230.841,7.200 231.800 C 7.860 232.759,8.400 233.693,8.400 233.874 C 8.400 234.056,9.120 234.969,10.000 235.903 C 10.880 236.837,11.600 237.790,11.600 238.020 C 11.600 238.535,13.639 240.370,14.230 240.387 C 14.467 240.394,15.087 240.854,15.608 241.409 C 16.129 241.963,17.556 242.879,18.778 243.443 C 20.000 244.008,21.313 244.634,21.695 244.835 C 22.077 245.036,22.741 245.200,23.171 245.200 C 23.601 245.200,24.064 245.380,24.200 245.600 C 24.336 245.820,24.799 246.000,25.229 246.000 C 25.659 246.000,26.413 246.208,26.905 246.462 C 28.796 247.440,29.209 247.600,29.842 247.600 C 30.563 247.600,35.397 249.087,36.495 249.646 C 36.877 249.841,37.541 250.000,37.971 250.000 C 38.401 250.000,38.864 250.180,39.000 250.400 C 39.136 250.620,39.676 250.800,40.200 250.800 C 40.724 250.800,41.264 250.980,41.400 251.200 C 41.536 251.420,42.076 251.600,42.600 251.600 C 43.124 251.600,43.664 251.780,43.800 252.000 C 43.936 252.220,44.476 252.400,45.000 252.400 C 45.524 252.400,46.064 252.580,46.200 252.800 C 46.336 253.020,46.887 253.200,47.424 253.200 C 47.961 253.200,48.400 253.380,48.400 253.600 C 48.400 253.820,48.929 254.000,49.576 254.000 C 50.223 254.000,50.864 254.180,51.000 254.400 C 51.136 254.620,51.676 254.800,52.200 254.800 C 52.724 254.800,53.264 254.980,53.400 255.200 C 53.536 255.420,54.076 255.600,54.600 255.600 C 55.124 255.600,55.664 255.780,55.800 256.000 C 55.936 256.220,56.476 256.400,57.000 256.400 C 57.524 256.400,58.064 256.580,58.200 256.800 C 58.336 257.020,58.889 257.200,59.429 257.200 C 60.375 257.200,60.741 257.328,62.695 258.338 C 63.187 258.592,64.044 258.800,64.600 258.800 C 65.156 258.800,65.968 258.980,66.405 259.200 C 66.842 259.420,67.558 259.780,67.995 260.000 C 68.432 260.220,69.231 260.400,69.771 260.400 C 70.311 260.400,70.864 260.580,71.000 260.800 C 71.136 261.020,71.687 261.200,72.224 261.200 C 72.761 261.200,73.200 261.380,73.200 261.600 C 73.200 261.820,73.740 262.000,74.400 262.000 C 75.060 262.000,75.600 262.180,75.600 262.400 C 75.600 262.620,76.129 262.800,76.776 262.800 C 77.423 262.800,78.064 262.980,78.200 263.200 C 78.336 263.420,78.876 263.600,79.400 263.600 C 79.924 263.600,80.464 263.780,80.600 264.000 C 80.736 264.220,81.289 264.400,81.829 264.400 C 82.369 264.400,83.213 264.608,83.705 264.862 C 85.659 265.872,86.025 266.000,86.971 266.000 C 87.511 266.000,88.064 266.180,88.200 266.400 C 88.336 266.620,88.876 266.800,89.400 266.800 C 89.924 266.800,90.464 266.980,90.600 267.200 C 90.736 267.420,91.276 267.600,91.800 267.600 C 92.324 267.600,92.864 267.780,93.000 268.000 C 93.136 268.220,93.766 268.400,94.400 268.400 C 95.034 268.400,95.664 268.580,95.800 268.800 C 95.936 269.020,96.476 269.200,97.000 269.200 C 97.524 269.200,98.064 269.380,98.200 269.600 C 98.336 269.820,98.876 270.000,99.400 270.000 C 99.924 270.000,100.464 270.180,100.600 270.400 C 100.736 270.620,101.276 270.800,101.800 270.800 C 102.324 270.800,102.864 270.980,103.000 271.200 C 103.136 271.420,103.676 271.600,104.200 271.600 C 104.724 271.600,105.264 271.780,105.400 272.000 C 105.536 272.220,106.076 272.400,106.600 272.400 C 107.124 272.400,107.664 272.580,107.800 272.800 C 107.936 273.020,108.566 273.200,109.200 273.200 C 109.834 273.200,110.464 273.380,110.600 273.600 C 110.736 273.820,111.199 274.000,111.629 274.000 C 112.384 274.000,112.774 274.144,114.695 275.138 C 115.187 275.392,115.941 275.600,116.371 275.600 C 116.801 275.600,117.264 275.780,117.400 276.000 C 117.536 276.220,118.089 276.400,118.629 276.400 C 119.169 276.400,119.923 276.562,120.305 276.761 C 120.687 276.960,121.810 277.337,122.800 277.600 C 123.790 277.863,124.913 278.240,125.295 278.439 C 125.677 278.638,126.341 278.800,126.771 278.800 C 127.201 278.800,127.664 278.980,127.800 279.200 C 127.936 279.420,128.476 279.600,129.000 279.600 C 129.524 279.600,130.064 279.780,130.200 280.000 C 130.336 280.220,130.876 280.400,131.400 280.400 C 131.924 280.400,132.464 280.580,132.600 280.800 C 132.736 281.020,133.276 281.200,133.800 281.200 C 134.324 281.200,134.864 281.380,135.000 281.600 C 135.136 281.820,135.676 282.000,136.200 282.000 C 136.724 282.000,137.264 282.180,137.400 282.400 C 137.536 282.620,138.166 282.800,138.800 282.800 C 139.434 282.800,140.064 282.980,140.200 283.200 C 140.336 283.420,140.799 283.600,141.229 283.600 C 141.659 283.600,142.323 283.762,142.705 283.961 C 143.087 284.160,144.210 284.540,145.200 284.807 C 146.190 285.073,147.360 285.441,147.800 285.625 C 148.240 285.809,149.860 286.349,151.400 286.826 C 152.940 287.302,154.513 287.851,154.895 288.046 C 155.277 288.241,155.941 288.400,156.371 288.400 C 156.801 288.400,157.264 288.580,157.400 288.800 C 157.536 289.020,158.087 289.200,158.624 289.200 C 159.161 289.200,159.600 289.380,159.600 289.600 C 159.600 289.820,160.129 290.000,160.776 290.000 C 161.423 290.000,162.064 290.180,162.200 290.400 C 162.336 290.620,162.876 290.800,163.400 290.800 C 163.924 290.800,164.464 290.980,164.600 291.200 C 164.736 291.420,165.199 291.600,165.629 291.600 C 166.059 291.600,166.768 291.780,167.205 292.000 C 167.642 292.220,168.358 292.580,168.795 292.800 C 169.232 293.020,170.031 293.200,170.571 293.200 C 171.111 293.200,171.664 293.380,171.800 293.600 C 171.936 293.820,172.566 294.000,173.200 294.000 C 173.834 294.000,174.464 293.820,174.600 293.600 C 174.736 293.380,175.456 293.200,176.200 293.200 C 176.944 293.200,177.664 293.020,177.800 292.800 C 177.936 292.580,178.656 292.400,179.400 292.400 C 180.144 292.400,180.864 292.220,181.000 292.000 C 181.136 291.780,181.856 291.600,182.600 291.600 C 183.344 291.600,184.064 291.420,184.200 291.200 C 184.336 290.980,184.966 290.800,185.600 290.800 C 186.234 290.800,186.864 290.620,187.000 290.400 C 187.136 290.180,187.946 290.000,188.800 290.000 C 189.654 290.000,190.464 289.820,190.600 289.600 C 190.736 289.380,191.456 289.200,192.200 289.200 C 192.944 289.200,193.664 289.020,193.800 288.800 C 193.936 288.580,194.656 288.400,195.400 288.400 C 196.144 288.400,196.864 288.220,197.000 288.000 C 197.136 287.780,197.856 287.600,198.600 287.600 C 199.344 287.600,200.052 287.439,200.174 287.242 C 200.295 287.045,201.071 286.782,201.897 286.658 C 205.407 286.128,206.420 285.892,206.627 285.556 C 206.979 284.986,204.241 285.144,201.720 285.839 C 200.444 286.191,198.500 286.644,197.400 286.846 C 195.399 287.214,193.119 287.721,190.300 288.425 C 189.475 288.631,188.125 288.965,187.300 289.167 C 186.475 289.369,185.080 289.717,184.200 289.942 C 183.320 290.166,181.700 290.552,180.600 290.800 C 177.872 291.414,175.645 291.980,174.137 292.440 C 173.055 292.770,171.668 292.425,164.434 290.030 C 159.792 288.493,155.320 287.114,154.497 286.965 C 153.674 286.817,152.820 286.558,152.600 286.389 C 152.380 286.221,151.390 285.864,150.400 285.597 C 149.410 285.330,148.240 284.959,147.800 284.773 C 147.360 284.586,144.300 283.546,141.000 282.461 C 137.700 281.377,130.320 278.939,124.600 277.045 C 118.880 275.150,112.670 273.160,110.800 272.622 C 106.951 271.516,104.306 270.660,101.400 269.581 C 100.300 269.172,97.510 268.278,95.200 267.592 C 92.890 266.907,90.640 266.191,90.200 266.001 C 89.760 265.811,88.680 265.451,87.800 265.200 C 86.920 264.949,85.840 264.596,85.400 264.416 C 84.960 264.235,83.700 263.812,82.600 263.476 C 80.247 262.758,76.932 261.622,75.800 261.146 C 75.360 260.961,74.010 260.554,72.800 260.242 C 71.590 259.929,67.900 258.747,64.600 257.615 C 61.300 256.483,57.520 255.224,56.200 254.816 C 54.880 254.409,52.990 253.792,52.000 253.445 C 51.010 253.098,46.330 251.570,41.600 250.049 C 36.870 248.529,30.440 246.455,27.311 245.442 C 24.181 244.429,21.443 243.600,21.224 243.600 C 20.792 243.600,18.498 242.163,15.460 239.988 C 13.570 238.635,7.869 231.559,7.154 229.678 C 6.960 229.169,6.376 227.818,5.856 226.676 C 5.336 225.534,4.783 224.195,4.628 223.700 C 4.282 222.596,3.600 222.514,3.600 223.576 M367.600 245.600 C 367.270 245.813,366.584 245.991,366.076 245.994 C 365.568 245.997,365.257 246.169,365.384 246.375 C 365.720 246.918,367.290 246.753,368.075 246.091 C 368.446 245.778,368.940 245.639,369.172 245.782 C 369.404 245.926,369.910 245.859,370.297 245.634 C 370.873 245.298,370.748 245.223,369.600 245.218 C 368.830 245.215,367.930 245.387,367.600 245.600 M360.400 247.269 C 359.630 247.483,358.280 247.836,357.400 248.056 C 356.520 248.275,355.247 248.622,354.572 248.827 C 353.896 249.032,352.962 249.200,352.495 249.200 C 352.029 249.200,351.548 249.361,351.426 249.558 C 351.305 249.755,350.529 250.010,349.703 250.125 C 348.306 250.320,347.135 250.586,343.000 251.647 C 342.120 251.873,340.815 252.154,340.100 252.273 C 339.385 252.391,338.800 252.648,338.800 252.844 C 338.800 253.334,341.094 253.295,341.400 252.800 C 341.536 252.580,342.256 252.400,343.000 252.400 C 343.744 252.400,344.464 252.220,344.600 252.000 C 344.736 251.780,345.546 251.600,346.400 251.600 C 347.254 251.600,348.064 251.420,348.200 251.200 C 348.336 250.980,349.056 250.800,349.800 250.800 C 350.544 250.800,351.252 250.639,351.374 250.442 C 351.495 250.245,352.271 249.990,353.097 249.875 C 353.924 249.760,355.410 249.456,356.400 249.200 C 357.390 248.944,358.876 248.640,359.703 248.525 C 360.529 248.410,361.305 248.155,361.426 247.958 C 361.548 247.761,362.132 247.597,362.724 247.594 C 363.316 247.591,364.070 247.413,364.400 247.200 C 365.198 246.685,362.333 246.734,360.400 247.269 M334.800 253.480 C 333.370 253.816,332.140 254.250,332.067 254.445 C 331.993 254.640,331.228 254.800,330.367 254.800 C 329.486 254.800,328.800 254.994,328.800 255.244 C 328.800 255.718,330.089 255.589,333.200 254.803 C 334.190 254.553,335.705 254.225,336.567 254.074 C 337.430 253.923,338.210 253.575,338.301 253.300 C 338.504 252.686,338.096 252.707,334.800 253.480 M326.300 255.472 C 325.915 255.574,325.600 255.805,325.600 255.985 C 325.600 256.164,325.375 256.303,325.100 256.293 C 323.180 256.221,321.983 256.448,322.224 256.838 C 322.377 257.086,323.038 257.183,323.747 257.061 C 326.926 256.515,328.114 256.170,328.079 255.800 C 328.036 255.338,327.305 255.203,326.300 255.472 M319.900 257.072 C 318.681 257.397,319.144 258.056,320.500 257.925 C 321.215 257.856,321.765 257.620,321.721 257.400 C 321.630 256.936,320.899 256.804,319.900 257.072 M315.800 258.400 C 315.936 258.620,316.566 258.800,317.200 258.800 C 317.834 258.800,318.464 258.620,318.600 258.400 C 318.750 258.158,318.196 258.000,317.200 258.000 C 316.204 258.000,315.650 258.158,315.800 258.400 M313.900 258.712 C 313.295 258.790,312.800 259.021,312.800 259.227 C 312.800 259.432,311.979 259.600,310.976 259.600 C 309.863 259.600,309.249 259.756,309.400 260.000 C 309.536 260.220,310.256 260.400,311.000 260.400 C 311.744 260.400,312.464 260.220,312.600 260.000 C 312.736 259.780,313.366 259.600,314.000 259.600 C 314.634 259.600,315.256 259.432,315.383 259.228 C 315.699 258.717,315.205 258.545,313.900 258.712 M305.045 260.617 C 303.750 260.899,302.580 261.286,302.445 261.478 C 302.310 261.670,301.750 261.841,301.200 261.859 C 299.631 261.910,296.326 262.680,296.050 263.058 C 295.912 263.246,295.350 263.423,294.800 263.450 C 292.861 263.547,289.896 264.321,289.594 264.809 C 289.427 265.080,289.104 265.188,288.878 265.048 C 288.318 264.702,283.542 265.847,283.194 266.410 C 283.040 266.658,282.664 266.826,282.357 266.783 C 280.928 266.583,279.569 266.827,279.824 267.238 C 280.103 267.691,281.326 267.579,284.300 266.829 C 285.235 266.593,286.720 266.220,287.600 266.000 C 288.480 265.780,289.965 265.405,290.900 265.167 C 291.835 264.930,293.276 264.640,294.103 264.525 C 294.929 264.410,295.705 264.155,295.826 263.958 C 295.948 263.761,296.746 263.600,297.600 263.600 C 298.454 263.600,299.264 263.420,299.400 263.200 C 299.536 262.980,300.179 262.800,300.829 262.800 C 301.479 262.800,302.323 262.642,302.705 262.449 C 303.951 261.820,306.234 261.200,307.305 261.200 C 308.531 261.200,309.077 260.592,308.165 260.242 C 307.818 260.109,307.504 260.023,307.467 260.052 C 307.430 260.081,306.340 260.335,305.045 260.617 M275.400 267.872 C 274.080 268.204,271.560 268.824,269.800 269.248 C 268.040 269.673,265.160 270.382,263.400 270.825 C 261.640 271.268,258.580 271.979,256.600 272.405 C 254.620 272.832,252.370 273.359,251.600 273.576 C 250.830 273.794,246.420 274.882,241.800 275.994 C 237.180 277.106,232.860 278.177,232.200 278.373 C 231.540 278.569,229.290 279.122,227.200 279.602 C 222.801 280.612,222.338 280.722,215.400 282.404 C 207.422 284.340,207.200 284.405,207.200 284.815 C 207.200 285.326,209.484 285.312,209.800 284.800 C 209.936 284.580,210.656 284.400,211.400 284.400 C 212.144 284.400,212.864 284.220,213.000 284.000 C 213.136 283.780,213.959 283.600,214.829 283.600 C 215.699 283.600,216.723 283.442,217.105 283.249 C 218.327 282.632,220.626 282.000,221.648 282.000 C 222.194 282.000,222.811 281.835,223.020 281.634 C 223.229 281.432,224.030 281.217,224.800 281.155 C 225.570 281.092,226.380 280.919,226.600 280.768 C 226.820 280.618,227.675 280.383,228.500 280.247 C 232.232 279.632,232.821 279.490,233.027 279.156 C 233.148 278.960,233.946 278.800,234.800 278.800 C 235.654 278.800,236.464 278.620,236.600 278.400 C 236.736 278.180,237.546 278.000,238.400 278.000 C 239.254 278.000,240.064 277.820,240.200 277.600 C 240.336 277.380,240.966 277.200,241.600 277.200 C 242.234 277.200,242.864 277.020,243.000 276.800 C 243.136 276.580,243.856 276.400,244.600 276.400 C 245.344 276.400,246.064 276.220,246.200 276.000 C 246.336 275.780,247.146 275.600,248.000 275.600 C 248.854 275.600,249.664 275.420,249.800 275.200 C 249.936 274.980,250.656 274.800,251.400 274.800 C 252.144 274.800,252.864 274.620,253.000 274.400 C 253.136 274.180,253.856 274.000,254.600 274.000 C 255.344 274.000,256.064 273.820,256.200 273.600 C 256.336 273.380,257.159 273.200,258.029 273.200 C 258.899 273.200,259.923 273.042,260.305 272.849 C 261.551 272.220,263.834 271.600,264.905 271.600 C 265.481 271.600,266.064 271.420,266.200 271.200 C 266.336 270.980,267.056 270.800,267.800 270.800 C 268.544 270.800,269.264 270.620,269.400 270.400 C 269.536 270.180,270.346 270.000,271.200 270.000 C 272.054 270.000,272.864 269.820,273.000 269.600 C 273.136 269.380,273.831 269.200,274.544 269.200 C 275.257 269.200,276.011 269.034,276.220 268.831 C 276.429 268.628,277.126 268.403,277.769 268.331 C 279.040 268.189,279.744 267.178,278.533 267.233 C 278.130 267.252,276.720 267.539,275.400 267.872 " stroke="none" fill="#3b3b3b" fill-rule="evenodd"></path><path id="path1" d="M248.000 126.800 C 247.450 126.976,246.135 127.138,245.077 127.160 C 244.019 127.182,241.949 127.374,240.477 127.586 C 232.999 128.664,221.025 130.325,215.800 131.009 C 213.380 131.326,210.500 131.763,209.400 131.980 C 208.300 132.198,205.420 132.579,203.000 132.828 C 197.748 133.368,194.313 133.807,190.800 134.387 C 189.370 134.623,186.850 134.986,185.200 135.194 C 183.550 135.401,180.760 135.789,179.000 136.056 C 177.240 136.323,174.810 136.554,173.600 136.571 C 172.390 136.587,171.278 136.769,171.129 136.976 C 170.980 137.183,169.630 137.505,168.129 137.692 C 162.857 138.349,159.776 138.767,157.200 139.176 C 155.770 139.403,152.890 139.788,150.800 140.033 C 148.710 140.278,145.920 140.626,144.600 140.806 C 143.280 140.986,140.703 141.331,138.873 141.572 C 137.044 141.813,134.344 142.196,132.873 142.423 C 129.450 142.951,125.784 143.493,122.000 144.031 C 120.350 144.265,117.830 144.630,116.400 144.842 C 107.414 146.173,104.186 146.609,97.400 147.409 C 94.320 147.773,90.540 148.245,89.000 148.460 C 80.413 149.656,77.791 150.053,72.000 151.036 C 66.702 151.935,64.047 152.300,59.200 152.795 C 56.890 153.031,54.100 153.397,53.000 153.609 C 51.900 153.821,50.100 154.096,49.000 154.221 C 47.900 154.346,46.280 154.593,45.400 154.770 C 44.520 154.947,43.440 155.095,43.000 155.100 C 41.767 155.112,38.510 155.569,35.200 156.194 C 33.550 156.506,30.580 156.963,28.600 157.210 C 19.603 158.331,15.333 160.404,9.712 166.380 C 8.564 167.601,7.619 168.746,7.612 168.924 C 7.605 169.102,7.420 169.136,7.200 169.000 C 6.980 168.864,6.800 169.102,6.800 169.528 C 6.800 170.386,4.223 174.890,3.911 174.577 C 3.803 174.469,3.463 174.690,3.157 175.067 C 2.788 175.521,2.769 175.652,3.100 175.453 C 3.435 175.252,3.600 175.424,3.600 175.976 C 3.600 176.429,3.401 176.800,3.157 176.800 C 2.914 176.800,2.818 177.070,2.945 177.400 C 3.257 178.214,2.816 179.257,2.295 178.935 C 2.028 178.770,1.956 178.990,2.100 179.537 C 2.224 180.012,2.169 180.985,1.977 181.700 C 1.786 182.415,1.524 183.680,1.395 184.511 C 1.265 185.342,1.009 185.929,0.825 185.816 C -0.189 185.189,-0.086 208.371,0.930 209.387 C 1.802 210.259,1.866 212.988,1.006 212.658 C 0.514 212.469,0.494 212.561,0.886 213.189 C 1.147 213.607,1.484 213.872,1.635 213.779 C 1.938 213.591,2.386 214.984,2.395 216.143 C 2.398 216.677,2.204 216.817,1.700 216.642 C 1.213 216.473,1.285 216.640,1.934 217.191 C 2.450 217.628,3.105 218.883,3.398 219.992 C 3.899 221.891,3.854 222.174,3.070 222.037 C 2.889 222.006,2.855 222.165,2.994 222.390 C 3.133 222.616,3.482 222.800,3.769 222.800 C 4.389 222.800,5.773 226.196,5.400 226.800 C 5.257 227.031,5.349 227.170,5.603 227.110 C 5.857 227.049,6.380 227.787,6.765 228.750 C 7.841 231.442,13.089 238.242,15.379 239.913 C 18.306 242.046,20.768 243.600,21.224 243.600 C 21.443 243.600,24.181 244.429,27.311 245.442 C 30.440 246.455,36.870 248.529,41.600 250.049 C 46.330 251.570,51.010 253.098,52.000 253.445 C 52.990 253.792,54.880 254.409,56.200 254.816 C 57.520 255.224,61.300 256.483,64.600 257.615 C 67.900 258.747,71.590 259.929,72.800 260.242 C 74.010 260.554,75.360 260.961,75.800 261.146 C 76.932 261.622,80.247 262.758,82.600 263.476 C 83.700 263.812,84.960 264.235,85.400 264.416 C 85.840 264.596,86.920 264.949,87.800 265.200 C 88.680 265.451,89.760 265.811,90.200 266.001 C 90.640 266.191,92.890 266.907,95.200 267.592 C 97.510 268.278,100.300 269.172,101.400 269.581 C 104.306 270.660,106.951 271.516,110.800 272.622 C 112.670 273.160,118.880 275.150,124.600 277.045 C 130.320 278.939,137.700 281.377,141.000 282.461 C 144.300 283.546,147.360 284.586,147.800 284.773 C 148.240 284.959,149.410 285.330,150.400 285.597 C 151.390 285.864,152.380 286.221,152.600 286.389 C 152.820 286.558,153.674 286.817,154.497 286.965 C 155.320 287.114,159.792 288.493,164.434 290.030 C 171.668 292.425,173.055 292.770,174.137 292.440 C 175.645 291.980,177.872 291.414,180.600 290.800 C 182.575 290.355,183.976 290.014,187.300 289.167 C 191.843 288.010,194.939 287.298,197.400 286.846 C 198.500 286.644,200.444 286.191,201.720 285.839 C 204.473 285.080,206.981 284.984,206.568 285.652 C 206.398 285.927,206.506 286.028,206.844 285.910 C 207.150 285.804,207.349 285.429,207.287 285.077 C 207.163 284.380,206.912 284.463,215.400 282.404 C 222.338 280.722,222.801 280.612,227.200 279.602 C 229.290 279.122,231.540 278.569,232.200 278.373 C 232.860 278.177,237.180 277.106,241.800 275.994 C 246.420 274.882,250.830 273.794,251.600 273.576 C 252.370 273.359,254.620 272.832,256.600 272.405 C 259.943 271.685,264.373 270.625,268.200 269.630 C 277.367 267.247,279.395 266.915,279.034 267.857 C 278.824 268.404,278.883 268.429,279.386 268.011 C 279.719 267.735,279.905 267.370,279.800 267.199 C 279.574 266.834,281.467 266.512,282.558 266.730 C 283.175 266.853,283.212 266.954,282.758 267.271 C 282.294 267.595,282.301 267.632,282.800 267.489 C 283.130 267.394,283.348 267.026,283.285 266.670 C 283.209 266.244,283.551 265.937,284.285 265.771 C 284.898 265.633,286.056 265.356,286.857 265.156 C 288.546 264.734,290.005 265.074,289.134 265.686 C 288.710 265.984,288.724 266.025,289.200 265.889 C 289.530 265.794,289.748 265.426,289.685 265.070 C 289.609 264.641,289.946 264.344,290.685 264.189 C 291.298 264.060,292.551 263.766,293.468 263.534 C 295.204 263.097,296.207 263.342,295.745 264.089 C 295.588 264.342,295.662 264.409,295.921 264.249 C 296.165 264.098,296.267 263.718,296.146 263.404 C 295.998 263.018,296.295 262.758,297.064 262.599 C 297.689 262.469,298.879 262.183,299.708 261.963 C 300.538 261.743,301.413 261.684,301.653 261.833 C 301.893 261.981,302.222 261.888,302.384 261.626 C 302.719 261.084,307.526 259.997,308.291 260.290 C 308.569 260.397,308.672 260.690,308.521 260.942 C 308.370 261.194,308.549 261.155,308.919 260.855 C 309.289 260.555,309.493 260.150,309.372 259.955 C 309.251 259.760,309.958 259.600,310.943 259.600 C 311.928 259.600,312.795 259.416,312.870 259.191 C 312.944 258.967,313.672 258.758,314.487 258.727 C 315.301 258.697,315.874 258.520,315.760 258.336 C 315.646 258.151,316.358 258.000,317.343 258.000 C 318.380 258.000,319.201 257.798,319.293 257.520 C 319.381 257.256,320.105 257.040,320.901 257.040 C 321.697 257.040,322.271 256.916,322.177 256.763 C 321.976 256.437,324.843 256.022,325.343 256.306 C 325.531 256.413,325.441 256.671,325.143 256.880 C 324.704 257.188,324.715 257.228,325.200 257.089 C 325.530 256.994,325.752 256.641,325.693 256.304 C 325.572 255.614,327.168 255.059,328.168 255.443 C 328.516 255.576,328.800 255.486,328.800 255.243 C 328.800 254.988,329.520 254.803,330.500 254.806 C 331.810 254.811,332.062 254.910,331.600 255.237 C 331.067 255.614,331.067 255.642,331.600 255.489 C 331.930 255.394,332.154 255.050,332.097 254.723 C 332.024 254.298,332.651 253.986,334.297 253.630 C 335.564 253.356,337.035 253.030,337.566 252.906 C 338.354 252.722,338.484 252.805,338.270 253.361 C 338.116 253.764,338.170 253.942,338.405 253.797 C 338.622 253.663,338.800 253.313,338.800 253.020 C 338.800 252.727,339.385 252.391,340.100 252.273 C 340.815 252.154,342.165 251.865,343.100 251.629 C 347.406 250.543,348.277 250.338,349.400 250.148 C 350.060 250.037,350.960 249.791,351.400 249.603 C 351.840 249.414,352.740 249.149,353.400 249.012 C 354.060 248.876,355.230 248.600,356.000 248.400 C 361.325 247.017,365.478 246.406,364.400 247.165 C 364.070 247.398,364.003 247.591,364.251 247.594 C 364.794 247.601,365.847 246.417,365.349 246.359 C 364.743 246.288,367.730 245.537,369.400 245.341 C 370.588 245.201,370.846 245.260,370.400 245.570 C 370.070 245.800,369.980 245.985,370.200 245.981 C 370.833 245.971,372.015 244.948,371.727 244.660 C 371.584 244.517,372.026 244.400,372.710 244.400 C 373.393 244.400,374.052 244.239,374.174 244.042 C 374.295 243.845,375.071 243.594,375.897 243.483 C 376.724 243.372,378.120 243.070,379.000 242.811 C 379.880 242.552,381.320 242.187,382.200 242.000 C 383.080 241.813,384.520 241.459,385.400 241.214 C 386.280 240.968,388.710 240.405,390.800 239.963 C 399.484 238.127,400.872 237.151,398.412 234.612 C 396.704 232.850,384.820 227.200,382.823 227.200 C 382.606 227.200,381.657 226.950,380.714 226.645 C 379.771 226.339,377.157 225.521,374.904 224.826 C 370.171 223.366,370.234 223.441,369.642 218.600 C 367.814 203.642,371.352 188.132,377.774 182.959 C 378.448 182.416,379.420 181.618,379.934 181.186 C 380.448 180.754,381.104 180.400,381.393 180.400 C 382.457 180.400,387.826 177.977,389.848 176.585 C 394.421 173.435,394.128 168.682,389.295 167.622 C 387.178 167.157,385.609 166.702,379.600 164.808 C 378.390 164.427,376.050 163.711,374.400 163.217 C 372.750 162.724,370.410 161.996,369.200 161.599 C 367.990 161.203,366.010 160.651,364.800 160.372 C 363.590 160.093,361.070 159.372,359.200 158.770 C 354.103 157.127,342.821 153.640,341.000 153.143 C 340.120 152.903,338.950 152.569,338.400 152.400 C 337.850 152.231,336.590 151.871,335.600 151.601 C 334.610 151.330,333.440 150.968,333.000 150.796 C 332.560 150.623,330.310 149.912,328.000 149.214 C 325.690 148.516,323.387 147.778,322.881 147.573 C 322.376 147.368,321.608 147.200,321.176 147.200 C 320.743 147.200,320.077 147.038,319.695 146.839 C 319.313 146.640,318.190 146.260,317.200 145.993 C 315.180 145.448,313.391 144.877,312.200 144.397 C 311.760 144.219,310.500 143.851,309.400 143.578 C 308.300 143.305,307.229 142.929,307.020 142.741 C 306.811 142.553,306.147 142.400,305.544 142.400 C 304.941 142.400,304.336 142.220,304.200 142.000 C 304.064 141.780,303.601 141.600,303.171 141.600 C 302.741 141.600,302.077 141.438,301.695 141.239 C 301.038 140.898,300.339 140.698,296.000 139.613 C 295.010 139.366,293.840 139.012,293.400 138.827 C 292.960 138.642,291.790 138.270,290.800 138.000 C 289.810 137.730,288.640 137.371,288.200 137.202 C 287.760 137.033,286.050 136.487,284.400 135.988 C 282.750 135.489,280.590 134.820,279.600 134.501 C 278.610 134.183,276.180 133.498,274.200 132.980 C 272.220 132.462,267.990 131.209,264.800 130.196 C 261.610 129.182,257.830 128.077,256.400 127.740 C 254.970 127.402,253.487 126.962,253.105 126.763 C 252.277 126.330,249.402 126.351,248.000 126.800 M37.239 177.168 C 41.948 178.719,50.840 181.625,57.000 183.626 C 81.883 191.707,85.827 192.991,96.200 196.384 C 102.140 198.328,112.670 201.758,119.600 204.007 C 126.530 206.256,132.560 208.238,133.000 208.411 C 133.440 208.584,136.590 209.627,140.000 210.729 C 143.410 211.830,151.150 214.346,157.200 216.319 C 163.250 218.292,169.512 220.312,171.115 220.808 C 175.170 222.063,174.959 219.239,173.625 254.400 C 173.396 260.450,173.206 266.621,173.204 268.113 C 173.199 271.407,172.885 271.619,169.435 270.652 C 168.096 270.277,165.740 269.613,164.200 269.176 C 162.660 268.740,159.510 267.864,157.200 267.231 C 154.890 266.597,151.740 265.719,150.200 265.279 C 147.030 264.373,142.041 262.940,140.100 262.377 C 137.494 261.621,136.123 261.247,132.200 260.222 C 130.000 259.648,127.660 258.999,127.000 258.781 C 125.957 258.437,122.129 257.329,110.200 253.918 C 108.660 253.478,106.950 253.026,106.400 252.914 C 105.850 252.802,101.710 251.661,97.200 250.378 C 92.690 249.095,86.930 247.500,84.400 246.833 C 81.870 246.167,78.540 245.255,77.000 244.807 C 75.460 244.359,73.300 243.736,72.200 243.423 C 71.100 243.110,68.670 242.404,66.800 241.854 C 64.930 241.304,61.600 240.376,59.400 239.792 C 57.200 239.208,54.860 238.576,54.200 238.388 C 53.540 238.199,52.370 237.865,51.600 237.646 C 45.744 235.974,44.273 235.548,41.800 234.809 C 40.260 234.348,37.020 233.449,34.600 232.810 C 26.376 230.640,25.560 230.400,24.428 229.814 C 12.351 223.569,8.487 188.532,18.631 177.250 C 22.307 173.161,25.039 173.149,37.239 177.168 M366.800 185.216 C 366.800 185.445,366.465 186.300,366.055 187.116 C 362.665 193.871,361.209 205.886,362.230 218.695 C 362.514 222.268,362.847 225.352,362.969 225.550 C 363.369 226.197,362.219 226.748,358.782 227.558 C 354.012 228.682,342.929 231.432,335.000 233.458 C 333.680 233.796,331.970 234.214,331.200 234.389 C 330.430 234.563,325.120 235.888,319.400 237.333 C 313.680 238.778,307.110 240.428,304.800 241.000 C 302.490 241.572,296.640 243.027,291.800 244.235 C 286.960 245.442,277.150 247.874,270.000 249.638 C 262.850 251.403,251.600 254.207,245.000 255.870 C 238.400 257.533,230.840 259.398,228.200 260.016 C 225.560 260.633,220.520 261.886,217.000 262.800 C 209.740 264.684,206.399 265.521,200.400 266.955 C 198.090 267.507,192.962 268.778,189.005 269.779 C 185.048 270.781,181.673 271.600,181.505 271.600 C 181.006 271.600,182.063 226.025,182.625 223.314 C 182.833 222.309,183.434 222.109,190.200 220.794 C 196.379 219.594,209.374 216.940,214.600 215.811 C 219.028 214.855,226.269 213.382,232.200 212.230 C 235.601 211.569,243.991 209.828,250.600 208.411 C 252.800 207.940,255.680 207.377,257.000 207.161 C 258.320 206.945,260.570 206.504,262.000 206.180 C 263.430 205.856,265.410 205.423,266.400 205.218 C 267.390 205.013,269.955 204.475,272.100 204.022 C 274.245 203.570,277.755 202.833,279.900 202.384 C 282.045 201.935,284.520 201.397,285.400 201.188 C 286.280 200.979,288.620 200.519,290.600 200.164 C 292.580 199.810,298.430 198.616,303.600 197.511 C 308.770 196.406,313.829 195.360,314.841 195.185 C 315.854 195.010,317.834 194.597,319.241 194.268 C 320.649 193.938,322.970 193.458,324.400 193.201 C 325.830 192.944,328.710 192.382,330.800 191.952 C 334.422 191.207,336.716 190.728,345.800 188.821 C 363.979 185.004,366.800 184.519,366.800 185.216 " stroke="none" fill="#040404" fill-rule="evenodd"></path></g></svg>