<svg id="svg" xmlns="http://www.w3.org/2000/svg" xmlns:xlink="http://www.w3.org/1999/xlink" width="400" height="400" viewBox="0, 0, 400,400"><g id="svgg"><path id="path0" d="M136.353 131.731 C 10.031 149.418,17.532 148.019,10.308 155.242 C -6.157 171.707,-2.587 219.366,16.071 232.187 C 18.162 233.624,43.621 242.252,95.895 259.239 L 172.649 284.180 283.395 257.371 C 412.433 226.133,400.000 229.378,400.000 226.932 C 400.000 223.744,393.415 220.274,378.329 215.511 C 369.665 212.775,370.000 213.497,370.488 198.619 C 371.030 182.075,375.125 174.264,385.325 170.318 C 392.579 167.511,395.695 162.877,392.773 159.239 C 392.017 158.297,257.174 116.984,251.563 115.976 C 250.918 115.860,199.074 122.950,136.353 131.731 M100.675 188.860 L 174.397 212.881 173.904 230.464 C 173.152 257.280,172.753 261.852,171.204 261.376 C 170.499 261.159,137.754 251.999,98.438 241.019 C 22.181 219.724,22.640 219.873,19.776 215.545 C 8.453 198.435,12.301 166.002,25.781 164.932 C 26.426 164.881,60.128 175.648,100.675 188.860 M364.120 181.445 C 362.228 186.776,362.109 187.988,362.109 202.037 L 362.109 216.965 271.969 239.370 C 222.391 251.693,181.703 261.651,181.550 261.498 C 181.229 261.177,182.848 213.792,183.193 213.432 C 183.467 213.145,363.123 176.014,364.901 175.876 C 365.940 175.796,365.819 176.659,364.120 181.445 " stroke="none" fill="#000000" fill-rule="evenodd"></path></g></svg>