<?xml version="1.0" encoding="UTF-8" standalone="no"?>
<svg
   viewBox="0 0 531.38702 454.26151"
   version="1.1"
   id="svg11"
   sodipodi:docname="home-14.svg"
   width="531.38702"
   height="454.26151"
   inkscape:version="1.1.1 (3bf5ae0, 2021-09-20)"
   xmlns:inkscape="http://www.inkscape.org/namespaces/inkscape"
   xmlns:sodipodi="http://sodipodi.sourceforge.net/DTD/sodipodi-0.dtd"
   xmlns="http://www.w3.org/2000/svg"
   xmlns:svg="http://www.w3.org/2000/svg"
   xmlns:rdf="http://www.w3.org/1999/02/22-rdf-syntax-ns#"
   xmlns:cc="http://creativecommons.org/ns#"
   xmlns:dc="http://purl.org/dc/elements/1.1/">
  <sodipodi:namedview
     id="namedview13"
     pagecolor="#505050"
     bordercolor="#eeeeee"
     borderopacity="1"
     inkscape:pageshadow="0"
     inkscape:pageopacity="0"
     inkscape:pagecheckerboard="0"
     showgrid="false"
     inkscape:zoom="0.74447514"
     inkscape:cx="265.28757"
     inkscape:cy="227.00557"
     inkscape:window-width="1366"
     inkscape:window-height="709"
     inkscape:window-x="0"
     inkscape:window-y="28"
     inkscape:window-maximized="1"
     inkscape:current-layer="svg11" />
  <defs
     id="defs4">
    <style
       id="style2">.cls-1{fill:#3d0c0c;}</style>
    <style
       id="style444">.cls-1{fill:#3d0c0c;}</style>
  </defs>
  <title
     id="title6">spotify</title>
  <g
     id="Livello_5"
     data-name="Livello 5"
     transform="translate(-124.99551,-144.3285)">
    <path
       class="cls-1"
       d="m 580.43,498.71 q 0,46 0,92 c 0,7.7 -0.07,7.74 -7.44,7.74 -41.63,0 -83.26,-0.1 -124.88,0.14 -5.92,0 -7.28,-1.92 -7.25,-7.51 0.2,-43 0.11,-86 0.1,-128.94 0,-8.8 0,-8.8 -9,-8.8 -28.2,0 -56.39,0.14 -84.58,-0.12 -5.59,-0.06 -7,1.78 -7,7.12 0.19,43.55 0.11,87.1 0.1,130.65 0,7.41 0,7.44 -7.61,7.44 -41.62,0 -83.25,-0.08 -124.88,0.14 -5.6,0 -7.07,-1.85 -7.06,-7.18 q 0.21,-92.6 0,-185.18 a 13.61,13.61 0 0 1 4.3,-10.52 q 85.18,-85.05 170.15,-170.32 c 10.81,-10.84 19.33,-11.22 29.7,-0.85 q 85.31,85.32 170.6,170.66 a 14.88,14.88 0 0 1 4.78,11.5 c -0.12,30.69 -0.04,61.32 -0.03,92.03 z"
       id="path450" />
    <path
       class="cls-1"
       d="m 656.38,398.71 c -0.45,8.24 -5,16 -14.2,20.22 -10.19,4.72 -19.77,2.82 -27.7,-4.91 -15.56,-15.19 -30.81,-30.7 -46.19,-46.08 Q 484.1,283.67 399.88,199.4 c -7.53,-7.54 -10.81,-7.5 -18.41,0.11 Q 275,306 168.52,412.56 c -9.43,9.42 -20.79,11.39 -30.91,5.56 -14.48,-8.33 -17,-26.73 -4.92,-39.25 13.12,-13.6 26.68,-26.79 40,-40.16 q 87.42,-87.45 174.84,-174.89 c 25.93,-25.89 60.19,-26 86,-0.26 q 107.19,107 214.15,214.2 c 5.37,5.24 8.81,11.35 8.7,20.95 z"
       id="path452" />
    <path
       class="cls-1"
       d="m 577.83,288.7 c -6.74,-7.06 -13.37,-14.23 -20.22,-21.17 -13.56,-13.71 -27.34,-27.2 -40.75,-41 a 13.53,13.53 0 0 1 -3.48,-8.37 c -0.31,-17.21 -0.07,-34.43 -0.23,-51.65 0,-4.26 1.14,-6.1 5.77,-6.05 18.53,0.2 37.06,0.16 55.59,0 4,0 6,1.15 5.94,5.42 q -0.08,59 0,118.06 a 19,19 0 0 1 -0.7,3.68 z"
       id="path454" />
  </g>
  <metadata
     id="metadata516">
    <rdf:RDF>
      <cc:Work
         rdf:about="">
        <dc:title>spotify</dc:title>
      </cc:Work>
    </rdf:RDF>
  </metadata>
</svg>
