<?xml version="1.0" encoding="UTF-8" standalone="no"?>
<svg
   viewBox="0 0 465.85236 434.94693"
   version="1.1"
   id="svg11"
   sodipodi:docname="king-17.svg"
   width="465.85236"
   height="434.94693"
   inkscape:version="1.1.1 (3bf5ae0, 2021-09-20)"
   xmlns:inkscape="http://www.inkscape.org/namespaces/inkscape"
   xmlns:sodipodi="http://sodipodi.sourceforge.net/DTD/sodipodi-0.dtd"
   xmlns="http://www.w3.org/2000/svg"
   xmlns:svg="http://www.w3.org/2000/svg"
   xmlns:rdf="http://www.w3.org/1999/02/22-rdf-syntax-ns#"
   xmlns:cc="http://creativecommons.org/ns#"
   xmlns:dc="http://purl.org/dc/elements/1.1/">
  <sodipodi:namedview
     id="namedview13"
     pagecolor="#505050"
     bordercolor="#eeeeee"
     borderopacity="1"
     inkscape:pageshadow="0"
     inkscape:pageopacity="0"
     inkscape:pagecheckerboard="0"
     showgrid="false"
     inkscape:zoom="0.74447514"
     inkscape:cx="233.05009"
     inkscape:cy="217.60297"
     inkscape:window-width="1366"
     inkscape:window-height="709"
     inkscape:window-x="0"
     inkscape:window-y="28"
     inkscape:window-maximized="1"
     inkscape:current-layer="svg11" />
  <defs
     id="defs4">
    <style
       id="style2">.cls-1{fill:#3d0c0c;}</style>
    <style
       id="style313">.cls-1{fill:#3d0c0c;}</style>
  </defs>
  <title
     id="title6">spotify</title>
  <g
     id="Livello_5"
     data-name="Livello 5"
     transform="translate(-77.705604,-164.21306)">
    <path
       class="cls-1"
       d="m 266.82,271.3 c -18.25,-7.36 -28,-20.19 -25,-39.91 2.72,-17.86 14.93,-26.64 32.65,-29.23 0.76,-3.37 1.5,-6.66 2.26,-9.94 3.93,-16.86 18,-28.33 34.32,-28 17,0.38 30.75,12.53 33.51,30 0.75,4.75 1.43,8 7.36,9.23 15.53,3.24 26.17,14.85 27.7,28.68 1.76,15.86 -5,28.49 -19.27,36.17 -1.81,1 -3.64,1.91 -5.7,3 17.19,28.7 34.35,56.91 51.15,85.33 3.44,5.8 6.25,7.05 12.09,2.62 20.22,-15.36 40.81,-30.23 61.49,-45.46 -1.15,-5.09 -3,-10 -3.28,-15.07 -1,-16.39 5.73,-29.34 19.84,-37.56 14.11,-8.22 28.55,-7.18 42.44,1.54 4.69,2.95 6.11,6.22 4.6,12 q -32.26,124.47 -63.92,249.1 c -1.88,7.38 -5.23,10.21 -12.93,10.19 q -155.19,-0.28 -310.38,0 c -8.27,0 -11.57,-3.07 -13.53,-10.8 q -31.6,-124.1 -63.87,-248 c -1.61,-6.19 -0.28,-9.52 4.86,-12.83 a 39.75,39.75 0 0 1 44.22,0.4 38.43,38.43 0 0 1 15.43,42.3 c -1.9,7 0.17,9.77 5.22,13.37 18.69,13.36 37.16,27 55.53,40.81 4.86,3.65 8.48,4.62 11.41,-1.83 a 44.42,44.42 0 0 1 2.71,-4.45 z"
       id="path319" />
    <path
       class="cls-1"
       d="m 309.58,599 c -51.2,0 -102.41,-0.17 -153.62,0.16 -8.06,0 -10.93,-2 -10.9,-10.48 0.07,-27.15 -0.26,-27.15 26.7,-27.15 97.19,0 194.38,0.13 291.57,-0.21 10,0 13.25,2.67 13,12.87 -0.59,24.8 -0.11,24.82 -24.64,24.82 z"
       id="path321" />
  </g>
  <metadata
     id="metadata378">
    <rdf:RDF>
      <cc:Work
         rdf:about="">
        <dc:title>spotify</dc:title>
      </cc:Work>
    </rdf:RDF>
  </metadata>
</svg>
