<?xml version="1.0" encoding="UTF-8" standalone="no"?>
<!-- Created with Inkscape (http://www.inkscape.org/) -->

<svg
   width="458.19296mm"
   height="209.49011mm"
   viewBox="0 0 458.19296 209.49011"
   version="1.1"
   id="svg5"
   sodipodi:docname="sbrikkislogoextended.svg"
   inkscape:version="1.1.1 (3bf5ae0, 2021-09-20)"
   xmlns:inkscape="http://www.inkscape.org/namespaces/inkscape"
   xmlns:sodipodi="http://sodipodi.sourceforge.net/DTD/sodipodi-0.dtd"
   xmlns="http://www.w3.org/2000/svg"
   xmlns:svg="http://www.w3.org/2000/svg">
  <sodipodi:namedview
     id="namedview7"
     pagecolor="#505050"
     bordercolor="#eeeeee"
     borderopacity="1"
     inkscape:pageshadow="0"
     inkscape:pageopacity="0"
     inkscape:pagecheckerboard="0"
     inkscape:document-units="mm"
     showgrid="false"
     inkscape:zoom="0.48016975"
     inkscape:cx="1184.9976"
     inkscape:cy="429.01495"
     inkscape:window-width="1366"
     inkscape:window-height="709"
     inkscape:window-x="0"
     inkscape:window-y="28"
     inkscape:window-maximized="1"
     inkscape:current-layer="layer1"
     inkscape:lockguides="false" />
  <defs
     id="defs2">
    <style
       id="style96">.cls-1{stroke:#3d0d0c;stroke-miterlimit:10;stroke-width:5px;}.cls-2{fill:#3d0c0c;}</style>
  </defs>
  <g
     inkscape:label="Layer 1"
     inkscape:groupmode="layer"
     id="layer1"
     transform="translate(6.3258962,-44.030455)">
    <g
       id="Livello_13"
       data-name="Livello 13"
       transform="matrix(0.26458333,0,0,0.26458333,-25.135869,13.633444)">
      <path
         class="cls-1"
         d="m 909.88,667.65 c 0,14.11 -30.22,25.55 -67.5,25.55 -37.28,0 -67.5,-11.44 -67.5,-25.55 0,-14.11 30.22,-25.54 67.5,-25.54 37.28,0 67.5,11.44 67.5,25.54 z"
         id="path102" />
      <line
         class="cls-1"
         x1="774.88"
         y1="667.65002"
         x2="774.88"
         y2="666.44"
         id="line104" />
      <path
         class="cls-1"
         d="m 909.88,667.65 v 24.94 c 0,14.1 -30.22,25.54 -67.5,25.54 -37.28,0 -67.5,-11.44 -67.5,-25.54 v -24.94 c 0,14.11 30.22,25.55 67.5,25.55 37.28,0 67.5,-11.44 67.5,-25.55 z"
         id="path106" />
      <path
         class="cls-1"
         d="m 909.88,692.59 v 57.16 c 0,14.11 -30.22,25.54 -67.5,25.54 -37.28,0 -67.5,-11.43 -67.5,-25.54 v -57.16 c 0,14.1 30.22,25.54 67.5,25.54 37.28,0 67.5,-11.44 67.5,-25.54 z"
         id="path108" />
      <line
         class="cls-1"
         x1="909.88"
         y1="667.65002"
         x2="909.88"
         y2="666.44"
         id="line110" />
      <path
         d="m 388.23,115.29 c 5.22,-1.33 7.78,0.63 9.76,5.83 20.78,54.66 39.24,110 49.62,167.71 4.7,26.12 7.86,52.4 3.85,79 -3.21,21.33 -13.29,39.63 -25.62,56.8 -17.27,24 -39.26,43.38 -62.31,61.63 -18.54,14.67 -38.19,27.89 -56.29,43.14 -8.62,7.26 -14.45,16.08 -19.36,26.58 -13.3,28.45 -14.31,58.6 -15.45,88.85 q -2.76,73.68 -0.74,147.41 c 0.56,21.13 1.42,42.29 5.44,63.14 0.16,0.82 0.28,1.64 0.48,2.45 3.1,13 4.53,14.19 17.65,14.74 24.64,1 49.24,2.53 73.35,8.22 a 75,75 0 0 1 9.93,3.3 c 2.46,1 5.42,2.15 5.4,5.21 -0.02,3.06 -3.12,4.13 -5.51,5.16 -8,3.43 -16.54,5.07 -25.11,6.28 -50.05,7.07 -100.27,7.21 -150.57,3.46 -16.11,-1.2 -32.17,-2.94 -47.82,-7.22 a 48.14,48.14 0 0 1 -8.41,-3.09 c -2,-1 -4.55,-1.87 -4.38,-4.83 0.15,-2.57 2.38,-3.45 4.28,-4.44 a 48.22,48.22 0 0 1 11.28,-3.93 c 21.65,-5.14 43.76,-6.59 65.88,-7.85 3.16,-0.18 6.32,-0.24 9.49,-0.38 8.44,-0.38 9.79,-1.29 12.59,-9.47 3.53,-10.32 4.62,-21.11 5.62,-31.89 3.92,-42.21 3.31,-84.54 2.93,-126.85 -0.31,-34.65 -1,-69.3 -4.88,-103.78 -1.2,-10.61 -3.07,-21 -7.66,-30.85 -3,-6.46 -5.13,-13.34 -7.62,-20.05 -2,-5.45 -5.74,-9.72 -9.81,-13.68 -13.17,-12.83 -28.32,-23.18 -43,-34.15 -26,-19.48 -51.62,-39.47 -72.7,-64.51 -16.25,-19.31 -29.69,-40.26 -34.8,-65.42 -4.27,-21 -2.73,-42.14 0.1,-63.17 7.45,-55.39 24.07,-108.36 42.75,-160.77 3.4,-9.56 7.36,-18.91 10.72,-28.48 1.3,-3.71 3.25,-5.08 7,-4.09 0.33,0.9 0.67,1.8 1,2.7 -8.81,26.17 -18,52.22 -26.35,78.54 -14.13,44.66 -25.89,89.81 -29.17,136.87 -2.4,34.5 7,65.19 28.93,91.42 a 291.45,291.45 0 0 0 83.17,68.58 q 69.6,38.36 139.66,0.55 c 31.71,-17.14 59.12,-39.9 82.56,-67 C 435.66,402 446.57,372.62 445,339.1 a 399.37,399.37 0 0 0 -8.33,-63.81 C 425.18,221.24 408,169 387.26,117.85 c 0.32,-0.85 0.65,-1.7 0.97,-2.56 z"
         id="path112" />
      <path
         d="m 388.23,115.19 c -0.32,0.85 -0.65,1.7 -1,2.56 -1.49,0 -3,-0.1 -4.49,-0.1 q -119.49,0.1 -239,0.23 c -2.83,0 -5.65,0.13 -8.47,0.2 -0.34,-0.9 -0.68,-1.8 -1,-2.7 2.32,-0.07 4.64,-0.2 7,-0.2 q 121.76,-0.12 243.51,-0.2 c 1.14,0.02 2.3,0.14 3.45,0.21 z"
         id="path114" />
      <path
         d="m 495,752.05 31.72,-41.34 c 16.54,-22.56 33.34,-44.9 49.52,-67.76 10.46,-14.78 20,-30.32 30,-45.52 l -0.65,0.63 q 15.19,-19.38 30.4,-38.76 c 3.54,-4.5 6.48,-10 10.84,-13.24 49.78,-36.9 105.49,-49.25 169.27,-47.8 -17,23 -31.65,42.53 -45.94,62.35 -3.94,5.47 -6.79,11.85 -10.14,17.82 -16.34,22.18 -33,44.14 -49,66.6 -30.37,42.58 -60.4,85.45 -90.58,128.2 -6.91,3.51 -14.16,10.67 -20.67,9.95 -46.18,-5.07 -90.8,-0.45 -136.1,22.49 z"
         id="path116" />
      <path
         d="M 606.42,767.23 C 636.6,724.48 666.63,681.61 697,639 c 16,-22.46 32.63,-44.42 49,-66.6 7.22,-8.75 13.9,-18.17 21.92,-26 3.6,-3.5 10.81,-6.59 14.77,-5 22,8.62 43.52,18.72 65.53,28.46 l -58.92,72.24 0.65,-0.59 -66.45,90 0.5,-0.69 c -20.54,30.53 -42.29,60.21 -61.12,91.93 -10.2,17.18 -17.81,19.49 -37,14.41 -50.85,-13.43 -103,-20.9 -154.72,-30.59 -4.69,-0.88 -9.57,-0.59 -14.36,-0.88 l -0.67,-6.11 c 21.53,-6 42.81,-14.19 64.69,-17.23 21,-2.91 42.81,-2.17 63.9,0.4 13.45,1.7 19.72,-1.61 21.7,-15.52 z"
         id="path118" />
      <path
         d="m 789.3,642.1 c 16.55,-17.58 32.82,-35.48 49.83,-52.5 3.79,-3.79 10.19,-4.52 16.27,-2.71 l -39.7,48.11 0.64,-0.61 c -21.78,27.12 -43.76,54 -65.17,81.5 -4.72,6 -7.42,14 -11,21 l -37.71,54.81 c -13.39,20.94 -26.38,42.21 -40.49,62.55 -3,4.25 -10.91,8.34 -15.12,7 -48.38,-14.94 -96.48,-30.95 -144,-50 l 149.83,35.59 c 1.69,-2.73 6.17,-9.86 10.59,-17.05 q 30.4,-49.44 60.78,-98.91 l -0.5,0.69 66.45,-90 z"
         id="path120" />
      <path
         d="m 702.46,791.7 37.66,-54.82 76.22,-102.51 -0.64,0.61 c 8.38,-8.19 16.6,-16.6 25.24,-24.46 a 23.48,23.48 0 0 1 15.3,-6.62 l -25.08,37.58 -19.8,25.22 -54.75,73.78 c -3.52,4.48 -7.23,8.8 -10.52,13.48 q -27.66,39.39 -55.15,78.92 c -11.64,16.9 -23.29,33.8 -35.21,51.12 -6.62,-2.73 -12.59,-5.45 -18.7,-7.67 -18.37,-6.67 -36.8,-13.14 -55.2,-19.7 -18.09,-7.48 -36.16,-15 -54.28,-22.41 -6.59,-2.69 -13.3,-5 -19.34,-10.36 11.27,2.82 22.71,5 33.79,8.56 34.11,10.9 68.19,22 102.06,33.75 9.65,3.36 15.77,3.09 21.31,-7.62 11.72,-22.67 24.63,-44.61 37.09,-66.85 z"
         id="path122" />
      <path
         d="m 840.32,654.16 c 8.65,-6.57 12.49,-21.72 28.87,-19.66 -2.27,4.28 -3.21,6.86 -4.78,8.87 q -94,120.72 -188.09,241.29 c -2.81,3.59 -6.3,6.55 -9.48,9.8 l 19.24,-38 31,-41 49.84,-70.31 -0.51,0.63 53.55,-71.76 z"
         id="path124" />
      <path
         d="m 838,655.62 -21.79,23.48 -49.83,66.77 0.51,-0.63 -49.84,70.31 -31,41 4.86,-23.62 Q 718.49,793.4 746.09,754 c 3.29,-4.68 7,-9 10.52,-13.48 l 54.75,-73.78 19.8,-25.22 26.12,-24.52 3.84,3.22 z"
         id="path126" />
      <path
         d="m 433.84,805.24 q -86.61,8.09 -172.51,16 c -1.08,-3.68 -0.67,-2.27 -1.74,-5.95 55.73,-15.79 113.33,-24.56 174.25,-10.05 z"
         id="path128" />
      <path
         d="m 426.14,786.84 c -52.75,-12.23 -103.38,-6.26 -152.88,5.28 q -2.85,-3.76 -5.72,-7.51 c 3.64,-1.93 7.19,-4.11 11,-5.74 47.24,-20.27 96.95,-16.62 147.6,7.97 z"
         id="path130" />
      <path
         d="m 273.91,773.24 c 15.51,-27.64 95.06,-27.88 140.36,0 -17.72,-3.89 -32.72,-8.42 -47.66,-10.06 a 216.34,216.34 0 0 0 -46.74,-0.43 c -15.11,1.7 -29.53,6.61 -45.96,10.49 z"
         id="path132" />
      <path
         d="M 272.24,802.27 C 319.3,784.38 369.69,780.06 415.14,790.69 372,794.2 322,798.25 272.24,802.27 Z"
         id="path134" />
      <path
         d="m 499.08,744.2 c -11.86,19.45 -23.53,38.88 -35.45,59 -60.56,-56.88 -125.15,-68.21 -194,-41 C 281.69,740 291.87,721.91 302,703.55 337.57,641.12 374.8,578.14 414.72,515.47 A 33.4,33.4 0 0 1 434,502.06 c 40.84,-9.25 82.43,-12.33 124.2,0.26 24.16,7.37 45.68,20.08 62.48,42.48 -9.25,16.07 -18.09,31.6 -26.83,47.11 l 0.59,-0.62 Q 558.72,645.8 525,700.09 c -0.42,0.68 0.14,2.26 0.25,3.43 Q 512,723.88 499.08,744.2 Z"
         id="path136" />
      <path
         d="m 638.21,892 q 6.81,7.34 13.61,14.66 c -12.74,-4.92 -25.68,-9.32 -38.2,-14.85 -31.83,-14.06 -63.48,-28.62 -94.66,-45.53 3,0.5 6.2,0.44 9,1.58 31.69,13 63.29,26.15 95,39.13 4.92,2.01 10.15,3.34 15.25,5.01 z"
         id="path138" />
      <path
         d="m 582.14,856.22 q 36.58,16.47 73.16,32.95 c 1.29,0.59 2.48,1.42 3.72,2.14 L 658,897 638,892.34 C 619.58,883 601.42,873 582.75,864.25 567.35,857.07 551.36,851.38 536.1,843.49 Z"
         id="path140" />
      <path
         d="m 418.92,814.52 37,10.81 c -18.92,9.67 -30.86,5.86 -37,-10.81 z"
         id="path142" />
      <path
         class="cls-2"
         d="m 88,346.59 v -6.4 c 0.33,-3.66 0.67,-7.32 1,-11 0.68,-7.48 1.35,-15 2.07,-22.88 4.16,3.23 8,6.22 11.87,9.24 13.12,10.28 26.67,19.87 41.91,26.89 28.11,13 56,13.63 83.63,-1.26 17.16,-9.26 34.24,-18.67 51.13,-28.41 35.22,-20.3 72.08,-35.73 113.15,-38.7 10.86,-0.78 21.79,-0.63 32.69,-0.79 2.16,0 4.05,0.93 4.44,3.42 2.39,15.29 4.8,30.57 7.1,45.87 0.54,3.54 0.68,7.14 1,10.71 v 16.25 a 21.32,21.32 0 0 0 -0.42,2.62 101.87,101.87 0 0 1 -22.51,60.26 c -25.92,32.48 -57.29,58.52 -94.66,77 a 128.38,128.38 0 0 1 -56.13,13.69 c -22.12,0.23 -42.84,-5.39 -62.35,-15.49 C 168.25,470.19 139.7,446.33 115.26,417.5 A 110.4,110.4 0 0 1 89.36,359.76 C 88.82,355.39 88.49,351 88,346.59 Z"
         id="path144" />
    </g>
    <text
       xml:space="preserve"
       style="font-size:71.7964px;line-height:1.45;font-family:Merriweather;-inkscape-font-specification:Merriweather;stroke-width:0.373939"
       x="120.16813"
       y="122.54579"
       id="text11010"><tspan
         sodipodi:role="line"
         id="tspan11008"
         style="fill:#3d0c0c;fill-opacity:1;stroke-width:0.373939"
         x="120.16813"
         y="122.54579">Sbrikki's</tspan><tspan
         sodipodi:role="line"
         style="fill:#3d0c0c;fill-opacity:1;stroke-width:0.373939"
         x="120.16813"
         y="226.65057"
         id="tspan11014">       Books</tspan></text>
  </g>
</svg>
