<!--?xml version="1.0" encoding="UTF-8" standalone="no"?-->
<!-- Created with Inkscape (http://www.inkscape.org/) -->
<!--/***************************************************
 * Generated by SVG Artista on 12/22/2021, 11:41:36 AM
 * MIT license (https://opensource.org/licenses/MIT)
 * W. https://svgartista.net
 **************************************************/-->

 <!--
    svg-elem-1   body left
    svg-elem-2   head left
    svg-elem-3   back left
    svg-elem-4   beer bottle
    svg-elem-5   first bubble right line
    svg-elem-6   third bubble right line
    svg-elem-7   second bubble right line
    svg-elem-8   second bubble left line
    svg-elem-9   third bubble left line
    svg-elem-10  first bubble left line
    svg-elem-11  beer logo
    svg-elem-12  body right
    svg-elem-13  head right
    svg-elem-14  pouf right
 -->

<svg width="100%" height="100%" viewBox="0 -20 263.69376 229.49431" version="1.1" id="svg5" sodipodi:docname="sbrikkisdrunk.svg" inkscape:version="1.1.1 (3bf5ae0, 2021-09-20)" xmlns:inkscape="http://www.inkscape.org/namespaces/inkscape" xmlns:sodipodi="http://sodipodi.sourceforge.net/DTD/sodipodi-0.dtd" xmlns="http://www.w3.org/2000/svg" xmlns:svg="http://www.w3.org/2000/svg">
  <sodipodi:namedview id="namedview7" pagecolor="#505050" bordercolor="#eeeeee" borderopacity="1" inkscape:pageshadow="0" inkscape:pageopacity="0" inkscape:pagecheckerboard="0" inkscape:document-units="mm" showgrid="false" inkscape:zoom="0.48016975" inkscape:cx="834.08003" inkscape:cy="276.98538" inkscape:window-width="1366" inkscape:window-height="709" inkscape:window-x="0" inkscape:window-y="28" inkscape:window-maximized="1" inkscape:current-layer="layer1" inkscape:lockguides="false"></sodipodi:namedview>
  <defs id="defs2">
    <style id="style532">
      .cls-1{fill:#3d0c0c;}
      

@-webkit-keyframes animate-svg-fill-1 {
  0% {
    fill: transparent;
  }

  100% {
    fill: rgb(61, 12, 12);
  }
}

@keyframes animate-svg-fill-1 {
  0% {
    fill: transparent;
  }

  100% {
    fill: rgb(61, 12, 12);
  }
}

.svg-elem-1 {
  -webkit-animation: animate-svg-fill-1 0.1s cubic-bezier(0.645, 0.045, 0.355, 1) 0s both;
          animation: animate-svg-fill-1 0.1s cubic-bezier(0.645, 0.045, 0.355, 1) 0s both;
}

@-webkit-keyframes animate-svg-fill-2 {
  0% {
    transform: none;
  }

  100% {
    transform: rotateZ(-5deg);
  }
}

@keyframes animate-svg-fill-2 {
  0% {
    transform: none;
  }

  100% {
    transform: rotateZ(-5deg) translateY(3px);
  }
}

.svg-elem-2 {
  -webkit-animation: animate-svg-fill-2 7s cubic-bezier(0.645, 0.045, 0.355, 1) infinite alternate;
          animation: animate-svg-fill-2 7s cubic-bezier(0.645, 0.045, 0.355, 1) infinite alternate;
}

@-webkit-keyframes animate-svg-fill-3 {
  0% {
    fill: transparent;
  }

  100% {
    fill: rgb(61, 12, 12);
  }
}

@keyframes animate-svg-fill-3 {
  0% {
    fill: transparent;
  }

  100% {
    fill: rgb(61, 12, 12);
  }
}

.svg-elem-3 {
  -webkit-animation: animate-svg-fill-3 0.1s cubic-bezier(0.645, 0.045, 0.355, 1) 0s both;
          animation: animate-svg-fill-3 0.1s cubic-bezier(0.645, 0.045, 0.355, 1) 0s both;
}

@-webkit-keyframes animate-svg-fill-4 {
  0% {
    fill: transparent;
  }

  100% {
    fill: rgb(61, 12, 12);
  }
}

@keyframes animate-svg-fill-4 {
  0% {
    fill: transparent;
  }

  100% {
    fill: rgb(61, 12, 12);
  }
}

.svg-elem-4 {
  -webkit-animation: animate-svg-fill-4 0.1s cubic-bezier(0.645, 0.045, 0.355, 1) 0s both;
          animation: animate-svg-fill-4 0.1s cubic-bezier(0.645, 0.045, 0.355, 1) 0s both;
}

@-webkit-keyframes animate-svg-fill-5 {
  0% {
    transform: translateY(0);
  }

  100% {
    transform: translateY(-70px);
    opacity: 0;
  }
}

@keyframes animate-svg-fill-5 {
  0% {
    transform: translateY(0);
  }

  100% {
    transform: translateY(-70px);
    opacity: 0;
  }
}

.svg-elem-5 {
  -webkit-animation: animate-svg-fill-5 7.3s cubic-bezier(0.645, 0.045, 0.355, 1) infinite;
          animation: animate-svg-fill-5 7.3s cubic-bezier(0.645, 0.045, 0.355, 1) infinite;
}

@-webkit-keyframes animate-svg-fill-6 {
  0% {
    transform: translateY(0);
  }

  100% {
    transform: translateY(-70px);
    opacity: 0;
  }
}

@keyframes animate-svg-fill-6 {
  0% {
    transform: translateY(0);
  }

  100% {
    transform: translateY(-70px);
    opacity: 0;
  }
}

.svg-elem-6 {
  -webkit-animation: animate-svg-fill-6 5s cubic-bezier(0.645, 0.045, 0.355, 1) infinite;
          animation: animate-svg-fill-6 5s cubic-bezier(0.645, 0.045, 0.355, 1) infinite;
}

@-webkit-keyframes animate-svg-fill-7 {
  0% {
    transform: translateY(0);
  }

  100% {
    transform: translateY(-70px);
    opacity: 0;
  }
}

@keyframes animate-svg-fill-7 {
  0% {
    transform: translateY(0);
  }

  100% {
    transform: translateY(-70px);
    opacity: 0;
  }
}

.svg-elem-7 {
  -webkit-animation: animate-svg-fill-7 5.7s cubic-bezier(0.645, 0.045, 0.355, 1) infinite;
          animation: animate-svg-fill-7 5.7s cubic-bezier(0.645, 0.045, 0.355, 1) infinite;
}

@-webkit-keyframes animate-svg-fill-8 {
  0% {
    transform: translateY(0);
  }

  100% {
    transform: translateY(-80px);
    opacity: 0;
  }
}

@keyframes animate-svg-fill-8 {
  0% {
    transform: translateY(0);
  }

  100% {
    transform: translateY(-80px);
    opacity: 0;
  }
}

.svg-elem-8 {
  -webkit-animation: animate-svg-fill-8 6.8s cubic-bezier(0.645, 0.045, 0.355, 1) infinite;
          animation: animate-svg-fill-8 6.8s cubic-bezier(0.645, 0.045, 0.355, 1) infinite;
}

@-webkit-keyframes animate-svg-fill-9 {
  0% {
    transform: translateY(0);
  }

  100% {
    transform: translateY(-80px);
    opacity: 0;
  }
}

@keyframes animate-svg-fill-9 {
  0% {
    transform: translateY(0);
  }

  100% {
    transform: translateY(-80px);
    opacity: 0;
  }
}

.svg-elem-9 {
  -webkit-animation: animate-svg-fill-9 4.4s cubic-bezier(0.645, 0.045, 0.355, 1) infinite;
          animation: animate-svg-fill-9 4.4s cubic-bezier(0.645, 0.045, 0.355, 1) infinite;
}

@-webkit-keyframes animate-svg-fill-10 {
  0% {
    transform: translateY(0);
  }

  100% {
    transform: translateY(-80px);
    opacity: 0;
  }
}

@keyframes animate-svg-fill-10 {
  0% {
    transform: translateY(0);
  }

  100% {
    transform: translateY(-80px);
    opacity: 0;
  }
}

.svg-elem-10 {
  -webkit-animation: animate-svg-fill-10 6.5s cubic-bezier(0.645, 0.045, 0.355, 1) infinite;
          animation: animate-svg-fill-10 6.5s cubic-bezier(0.645, 0.045, 0.355, 1) infinite;
}

@-webkit-keyframes animate-svg-fill-11 {
  0% {
    fill: transparent;
  }

  100% {
    fill: rgb(61, 12, 12);
  }
}

@keyframes animate-svg-fill-11 {
  0% {
    fill: transparent;
  }

  100% {
    fill: rgb(61, 12, 12);
  }
}

.svg-elem-11 {
  -webkit-animation: animate-svg-fill-11 0.1s cubic-bezier(0.645, 0.045, 0.355, 1) 0s both;
          animation: animate-svg-fill-11 0.1s cubic-bezier(0.645, 0.045, 0.355, 1) 0s both;
}

@-webkit-keyframes animate-svg-fill-12 {
  0% {
    fill: transparent;
  }

  100% {
    fill: rgb(61, 12, 12);
  }
}

@keyframes animate-svg-fill-12 {
  0% {
    fill: transparent;
  }

  100% {
    fill: rgb(61, 12, 12);
  }
}

.svg-elem-12 {
  -webkit-animation: animate-svg-fill-12 0.1s cubic-bezier(0.645, 0.045, 0.355, 1) 0s both;
          animation: animate-svg-fill-12 0.1s cubic-bezier(0.645, 0.045, 0.355, 1) 0s both;
}

@-webkit-keyframes animate-svg-fill-13 {
  0% {
    transform: none;
  }

  100% {
    transform: rotateY(12deg) translateY(10px);
  }
}

@keyframes animate-svg-fill-13 {
  0% {
    transform: none;
  }

  100% {
    transform: rotateY(12deg) translateY(10px);
  }
}

.svg-elem-13 {
  -webkit-animation: animate-svg-fill-13 6s cubic-bezier(0.645, 0.045, 0.355, 1) infinite alternate;
          animation: animate-svg-fill-13 6s cubic-bezier(0.645, 0.045, 0.355, 1) infinite alternate;
}

@-webkit-keyframes animate-svg-fill-14 {
  0% {
    fill: transparent;
  }

  100% {
    fill: rgb(61, 12, 12);
  }
}

@keyframes animate-svg-fill-14 {
  0% {
    fill: transparent;
  }

  100% {
    fill: rgb(61, 12, 12);
  }
}

.svg-elem-14 {
  -webkit-animation: animate-svg-fill-14 0.1s cubic-bezier(0.645, 0.045, 0.355, 1) 0s both;
          animation: animate-svg-fill-14 0.1s cubic-bezier(0.645, 0.045, 0.355, 1) 0s both;
}

   </style>
  </defs>
  <g inkscape:label="Layer 1" inkscape:groupmode="layer" id="layer1" transform="translate(110.35707,62.318585)">
    <g id="Livello_3" data-name="Livello 3" transform="matrix(0.26458333,0,0,0.26458333,-144.49302,-84.516712)">
      <path class="cls-1 svg-elem-1" d="m 441.05,717.33 c 24.5,0 49,-0.25 73.51,0.09 15.35,0.22 25.21,9.78 25.53,23.64 0.33,14.65 -9.92,24.78 -25.87,24.88 -31.55,0.19 -63.09,0.09 -94.64,0.1 -13.52,0 -27,0.15 -40.56,-0.07 -6,-0.1 -9.13,1.52 -9.84,8.32 -1.79,17.14 -13.47,28.14 -29.7,29.1 -16.23,0.96 -28.89,-8.8 -32.87,-25.63 C 292.3,717.2 277,656.82 264.37,595.91 c -6.81,-32.71 -9.05,-66.36 -13.43,-99.58 -3.68,-27.91 -7.17,-55.85 -11.32,-83.69 A 64,64 0 0 1 286.46,341 c 32.13,-8.44 65.65,8.59 75.81,40.31 9.62,30 17.27,60.66 25.72,91 9.21,33.1 18.28,66.23 27.54,99.32 3.92,14 8,17.26 22.86,17.32 42.25,0.15 84.5,0 126.75,0.12 7,0 14.1,0.07 21.1,0.71 15.9,1.45 27.77,9.7 34.4,23.95 q 46.53,99.94 92.28,200.27 c 10.08,22.17 -0.11,47.74 -21.37,57 -21.87,9.55 -46,0.3 -56.57,-22.33 C 610.85,796.85 586.75,745 563.32,692.85 c -5.8,-12.9 -14.07,-18.13 -28,-18 -58.86,0.34 -117.73,0 -176.6,0 -9.57,0 -10.27,0.87 -8.15,10.35 1.72,7.7 3.9,15.3 5.33,23 1.26,6.8 4.79,9.19 11.65,9.11 24.5,-0.29 49,-0.11 73.51,-0.11 z" id="path538"></path>
      <path class="cls-1 svg-elem-2" d="m 283.22,275.87 c -0.25,43.46 -35,77.72 -78.33,77.27 -42.19,-0.43 -76.19,-35.42 -75.87,-78.08 0.32,-43 34.73,-76.88 77.95,-76.77 42.21,0.11 76.5,35 76.25,77.58 z" id="path540"></path>
      <path class="cls-1 svg-elem-3" d="m 135.71,391.14 c 0,-12.19 7.38,-21.39 18.43,-23.58 a 23.26,23.26 0 0 1 26.92,15.28 c 4.52,13.32 8.23,26.93 12.17,40.44 16.77,57.58 34.48,114.92 50.06,172.82 12.43,46.21 22.3,93.1 33.24,139.7 0.46,2 2.23,4.62 -0.54,6 -2.33,1.19 -4.21,-1 -6,-2.29 C 242.46,719.88 223.22,694.1 213.58,661.63 196.03,602.51 178.84,543.29 161.51,484.1 Q 149.8,444 138.13,403.83 c -1.25,-4.32 -2.61,-8.64 -2.42,-12.69 z" id="path542"></path>
      <path class="cls-1 svg-elem-4" d="m 437.74,875.38 c -6.76,0 -13.54,-0.32 -20.28,0.07 -20.44,1.18 -39.45,-1.81 -57,-13.9 -11.34,-7.82 -25.38,-8.83 -39,-9.08 -12.67,-0.23 -25.35,-0.38 -38,0 -8.9,0.26 -9.12,-5.16 -9,-11.59 0.12,-6.43 -0.37,-12.43 9.17,-12.48 15.75,-0.09 31.51,0.68 47.28,-0.69 14.1,-1.22 26.91,-5.88 38.92,-13 9.28,-5.48 19.2,-7.59 29.87,-7.53 26.47,0.15 52.95,0 79.42,0.08 15.68,0.07 18.59,3.11 18.65,18.84 q 0.07,16.07 0,32.11 c -0.08,12.11 -4.5,16.76 -16.89,17 -14.36,0.26 -28.72,0.06 -43.08,0.06 z m -11,-9.25 v 0 c 2.25,0 4.6,-0.45 6.72,0.07 13.25,3.23 19.82,-5 25.52,-14.67 8.52,-14.37 -3.67,-36.52 -20.18,-36.76 -7.3,-0.11 -14.81,1.07 -21.86,-0.26 -12.19,-2.3 -14.82,7.33 -19.75,14.11 a 19.36,19.36 0 0 0 -2.5,19.2 c 5.84,15.24 10.55,18.43 27,18.34 z" id="path544"></path>
      <path class="cls-1 svg-elem-5" d="m 284.7,102.59 c 0.08,11 -8.07,19.29 -19,19.34 a 19,19 0 0 1 -19,-18.56 c -0.28,-10.35 8.8,-19.61 19.09,-19.47 a 19,19 0 0 1 18.91,18.69 z" id="path546"></path>
      <path class="cls-1 svg-elem-6" d="m 398,216 a 18.88,18.88 0 0 1 -18.91,18.59 19.27,19.27 0 0 1 -18.94,-19.59 18.86,18.86 0 0 1 19,-18.51 C 389.86,196.44 398.1,205 398,216 Z" id="path548"></path>
      <path class="cls-1 svg-elem-7" d="m 334.27,123.11 a 18.56,18.56 0 0 1 18.48,19.7 c -0.41,10.51 -8.64,18.22 -19.27,18.06 -10.84,-0.16 -18.75,-8.63 -18.41,-19.71 0.33,-10.51 8.57,-18.26 19.2,-18.05 z" id="path550"></path>
      <path class="cls-1 svg-elem-8" d="m 300.83,185.7 c -0.12,5.73 -5.29,10.77 -11,10.26 -6.2,-0.55 -9.8,-4.41 -9.76,-10.47 0.04,-6.06 3.75,-9.83 10,-10.2 a 10.38,10.38 0 0 1 10.76,10.41 z" id="path552"></path>
      <path class="cls-1 svg-elem-9" d="m 321.18,223.64 c 5.37,0.56 9.25,3.77 9.43,10.1 0.18,6.33 -3.53,10 -9.71,10.59 -6,0.61 -10.83,-4.31 -10.73,-10.39 0.09,-5.64 4.61,-10.2 11.01,-10.3 z" id="path554"></path>
      <path class="cls-1 svg-elem-10" d="m 243.42,171 c -6,-1.16 -9.45,-4.61 -9.23,-10.92 a 9.88,9.88 0 0 1 11.57,-9.3 c 6.27,0.91 9.46,4.86 8.76,11.08 -0.7,6.22 -4.9,9.03 -11.1,9.14 z" id="path556"></path>
      <path class="cls-1 svg-elem-11" d="m 426.7,866.13 h -5.05 c -16.45,0.09 -21.16,-3.1 -27,-18.34 a 19.36,19.36 0 0 1 2.5,-19.2 c 4.93,-6.78 7.56,-16.41 19.75,-14.11 7.05,1.33 14.56,0.15 21.86,0.26 16.51,0.24 28.7,22.39 20.18,36.76 -5.7,9.64 -12.27,17.9 -25.52,14.67 -2.12,-0.52 -4.47,-0.07 -6.72,-0.07 z" id="path558"></path>
      <path class="cls-1 svg-elem-12" d="m 784.28,755.59 c -32.46,-14 -39.31,-28.74 -29.1,-63.3 13,-43.83 27.65,-87 50,-127.11 29.66,-53.27 57.14,-63.77 115.31,-44.78 4.85,1.58 9.67,3.21 17,5.66 -7.74,-20.31 -14.87,-39 -22.4,-58.8 a 29.62,29.62 0 0 0 -4.32,2.31 c -39.56,32 -81.73,35.49 -126.58,11.93 -6.91,-3.63 -14,-9.63 -22.15,-1.32 -0.95,1 -6.78,-1 -8.66,-3.14 q -38.9,-43.8 -77,-88.25 c -2.07,-2.42 -2.5,-8.27 -1.08,-11.29 11.89,-25.26 24.45,-50.2 36.68,-75.29 3.34,-6.84 7.06,-7.91 12.25,-1.81 6.89,8.1 13.94,16.06 21.7,25 5.43,-4.29 10.69,-8.27 15.74,-12.5 5.05,-4.23 9.3,-4.39 13.79,1.39 q 35.88,46.26 72.21,92.17 c 4.09,5.18 3.76,8.87 -1.8,12.61 -5.05,3.4 -9.69,7.41 -15.81,12.16 15.32,4.94 27.11,0.2 36.62,-8.06 19.34,-16.77 37.9,-34.48 56.21,-52.39 24.36,-23.84 52.54,-30.4 84.7,-20.11 19.54,6.25 33.16,18.86 40.08,38.62 17.94,51.21 37,102 53.74,153.65 5.16,16 7.43,34.36 5.22,50.86 -5.86,43.67 -39.22,64.74 -82.17,54.25 -12.57,-3.07 -25.17,-6.92 -36.85,-12.35 -9.52,-4.42 -14.51,-2 -18.56,6.36 -12.84,26.5 -26.64,52.6 -38.17,79.66 -6.88,16.16 -15.6,28.69 -32.88,33.89 h -9.47 c -31.69,-10.88 -40.12,-28.25 -26.87,-58.91 13.81,-32 28.91,-63.42 43.67,-95.57 a 44.45,44.45 0 0 0 -4.32,-2 c -19.27,-7.37 -20.54,-7.88 -28.17,10.65 -14.34,34.87 -28.52,70 -39.9,105.85 -6.44,20.29 -16.11,34.33 -36.77,40 z m -65,-445.46 -26.54,54.09 1.54,1.23 43.59,-33.95 z" id="path560"></path>
      <path class="cls-1 svg-elem-13" d="m 907.42,222.84 c 12.1,6.1 25.76,10.28 36,18.66 26.15,21.45 32.29,58.13 16.88,87.85 a 73.28,73.28 0 0 1 -81.68,37.56 c -31.53,-7.32 -54.73,-36 -56,-69.21 -1.23,-32.2 20.69,-62.12 52.55,-71.8 2.9,-0.88 5.73,-2 8.59,-3.06 z" id="path562"></path>
      <path class="cls-1 svg-elem-14" d="m 987.94,755.59 c -10.36,-5.18 -14,-13.67 -13.64,-25 0.52,-17.31 0,-34.65 0.17,-52 0.16,-17.05 5.89,-22.86 22.59,-22.9 q 53.18,-0.12 106.35,0 c 16,0 22,6.13 22,22.13 0.09,17.33 -0.48,34.67 0.2,52 0.45,11.16 -2.35,19.92 -12.18,25.8 z" id="path564"></path>
    </g>
  </g>
</svg>
