<?xml version="1.0" encoding="UTF-8" standalone="no"?>
<svg
   viewBox="0 0 450.32001 450.54001"
   version="1.1"
   id="svg11"
   sodipodi:docname="spotify.svg"
   width="450.32001"
   height="450.54001"
   inkscape:version="1.1.1 (3bf5ae0, 2021-09-20)"
   xmlns:inkscape="http://www.inkscape.org/namespaces/inkscape"
   xmlns:sodipodi="http://sodipodi.sourceforge.net/DTD/sodipodi-0.dtd"
   xmlns="http://www.w3.org/2000/svg"
   xmlns:svg="http://www.w3.org/2000/svg">
  <sodipodi:namedview
     id="namedview13"
     pagecolor="#505050"
     bordercolor="#eeeeee"
     borderopacity="1"
     inkscape:pageshadow="0"
     inkscape:pageopacity="0"
     inkscape:pagecheckerboard="0"
     showgrid="false"
     inkscape:zoom="0.74447514"
     inkscape:cx="223.6475"
     inkscape:cy="200.141"
     inkscape:window-width="1366"
     inkscape:window-height="709"
     inkscape:window-x="0"
     inkscape:window-y="28"
     inkscape:window-maximized="1"
     inkscape:current-layer="svg11" />
  <defs
     id="defs4">
    <style
       id="style2">.cls-1{fill:#3d0c0c;}</style>
  </defs>
  <title
     id="title6">spotify</title>
  <g
     id="Livello_5"
     data-name="Livello 5"
     transform="translate(-119.55,-163.17)">
    <path
       class="cls-1"
       d="m 569.87,385.44 v 6 c -1.52,11.13 -3,22.28 -4.6,33.39 -13.21,89 -86,165.19 -174.44,182.32 -14.26,2.77 -28.74,4.4 -43.11,6.56 h -6 c -11.12,-1.53 -22.25,-3 -33.36,-4.6 C 219.42,595.89 143.23,523 126.11,434.59 c -2.76,-14.27 -4.4,-28.76 -6.56,-43.15 v -6 c 1.53,-11.13 3,-22.28 4.6,-33.39 13.21,-89 86,-165.19 174.45,-182.32 14.26,-2.77 28.73,-4.4 43.11,-6.56 h 6 l 33.39,4.56 c 88.08,12.13 166.34,87 182.25,174.51 2.65,14.32 4.37,28.76 6.52,43.2 z m -263,-103 c -15.3,1.23 -35.93,2.11 -56.33,4.76 -15.41,2 -30.7,5.64 -45.72,9.71 -12.51,3.39 -18.77,15.64 -15.55,27.4 3.06,11.18 15.19,17.16 27.91,14.52 16.55,-3.43 33.12,-7.1 49.87,-9.19 51.4,-6.42 102.36,-2.89 152,11.63 19.95,5.82 38.81,15.43 58,23.63 12.62,5.38 26.28,2.14 31.42,-8 5.54,-11 1.09,-23.3 -11.16,-30.31 -6,-3.47 -12.2,-6.82 -18.51,-9.78 C 426.07,292 369.71,284.48 306.89,282.44 Z m -102.26,112.3 c 2.07,2.38 5.27,9 10.34,11.11 5.48,2.27 13,1.6 19.11,0 a 286,286 0 0 1 116.56,-6.34 c 35.59,5.38 69.18,15.76 100.39,33.91 9.93,5.77 20.09,2.56 25.78,-7 5.26,-8.85 2.47,-18.66 -7.54,-24.52 a 264.47,264.47 0 0 0 -24.7,-13 C 406,371.43 365.44,362.3 323.07,360.4 c -35.55,-1.6 -70.31,1.86 -104.47,11.88 -9.43,2.77 -13.5,8.91 -13.99,22.46 z m 93,37.84 c -15.36,2.23 -42.63,5.79 -69.74,10.33 -11.84,2 -16.81,9.43 -14.73,18.55 2.08,9.12 9.63,12.49 21,11.07 26,-3.23 52,-7.13 78.07,-8.31 40.35,-1.81 78.38,7.89 113.42,28.45 10.25,6 18.76,4.69 23.55,-3.31 5,-8.32 1.86,-16.39 -8.83,-22.72 C 400.05,442.79 356,433.71 297.61,432.58 Z"
       id="path8" />
  </g>
</svg>
