<?xml version="1.0" encoding="UTF-8" standalone="no"?>
<svg
   viewBox="0 0 624.42999 453.85001"
   version="1.1"
   id="svg11"
   sodipodi:docname="stats.svg"
   width="624.42999"
   height="453.85001"
   inkscape:version="1.1.1 (3bf5ae0, 2021-09-20)"
   xmlns:inkscape="http://www.inkscape.org/namespaces/inkscape"
   xmlns:sodipodi="http://sodipodi.sourceforge.net/DTD/sodipodi-0.dtd"
   xmlns="http://www.w3.org/2000/svg"
   xmlns:svg="http://www.w3.org/2000/svg"
   xmlns:rdf="http://www.w3.org/1999/02/22-rdf-syntax-ns#"
   xmlns:cc="http://creativecommons.org/ns#"
   xmlns:dc="http://purl.org/dc/elements/1.1/">
  <sodipodi:namedview
     id="namedview13"
     pagecolor="#505050"
     bordercolor="#eeeeee"
     borderopacity="1"
     inkscape:pageshadow="0"
     inkscape:pageopacity="0"
     inkscape:pagecheckerboard="0"
     showgrid="false"
     inkscape:zoom="0.74447514"
     inkscape:cx="312.30056"
     inkscape:cy="227.00557"
     inkscape:window-width="1366"
     inkscape:window-height="709"
     inkscape:window-x="0"
     inkscape:window-y="28"
     inkscape:window-maximized="1"
     inkscape:current-layer="svg11" />
  <defs
     id="defs4">
    <style
       id="style2">.cls-1{fill:#3d0c0c;}</style>
    <style
       id="style168">.cls-1{fill:#3d0c0c;}</style>
  </defs>
  <title
     id="title6">spotify</title>
  <g
     id="Livello_5"
     data-name="Livello 5"
     transform="translate(-145.87,-143.6)">
    <path
       class="cls-1"
       d="m 165.86,143.64 c 1.17,0.29 2.34,0.56 3.5,0.86 a 18.09,18.09 0 0 1 13.88,17.5 c 0.06,20.46 0,40.92 0,61.38 0,8.41 0,16.82 0,25.23 q 0,64 0,128 0,50.24 0.1,100.48 0,38.43 0.1,76.85 a 37,37 0 0 0 0.2,4.08 c 0.31,2.82 1.52,3.83 4.36,3.73 a 10.32,10.32 0 0 0 2.49,-0.25 c 4.07,-1.18 8.25,-0.77 12.38,-0.78 q 48.39,-0.16 96.77,-0.19 145.83,0 291.66,0 79.38,0 158.77,-0.12 a 26.52,26.52 0 0 1 7,0.73 17.07,17.07 0 0 1 12.44,12.37 39.6,39.6 0 0 1 0.79,3.93 v 2.27 a 7.36,7.36 0 0 0 -0.39,1.48 c -0.31,7.52 -7.87,15.62 -16.26,15.92 a 13.67,13.67 0 0 0 -2,0.34 H 732 c -2,-0.16 -4,-0.4 -5.94,-0.46 a 13.5,13.5 0 0 0 -2.7,0.46 h -89.03 a 23,23 0 0 0 -2.82,-0.46 c -1.28,-0.06 -2.57,0.07 -3.86,0.07 -8.32,0 -16.64,0 -25,0.08 a 13.57,13.57 0 0 0 -2,0.31 h -37.2 a 12.22,12.22 0 0 0 -2,-0.31 q -16.43,0 -32.86,0 a 12.34,12.34 0 0 0 -2,0.31 h -75.83 a 16.42,16.42 0 0 0 -8.93,-0.15 c -0.06,0 -0.1,0.1 -0.16,0.15 H 163.14 a 8.41,8.41 0 0 0 -1.26,-0.41 18.43,18.43 0 0 1 -15.3,-14.52 c -0.2,-0.94 -0.47,-1.87 -0.71,-2.81 V 558.4 a 9.44,9.44 0 0 0 0.39,-1.93 c 0.12,-9.09 0.27,-18.17 0.27,-27.25 q 0,-91.46 -0.13,-182.9 0,-21.24 -0.12,-42.48 a 12,12 0 0 0 -0.05,-1.59 3.34,3.34 0 0 0 -0.36,-0.8 v -99.14 c 0.58,-1.84 0.58,-10 0,-11.83 v -29.56 c 0.3,-0.83 0.67,-1.64 0.89,-2.49 1.86,-7.28 6.36,-12 13.61,-14 1.07,-0.29 2.15,-0.55 3.22,-0.83 z"
       id="path174" />
    <path
       class="cls-1"
       d="m 315.85,381.89 v 147.54 c 0,1 0,2 0,3 0.06,1.39 0,2.62 -1.31,3.62 -0.78,0.59 -0.7,2.18 -2.2,2.15 -1.16,1.55 -3,1.28 -4.56,1.56 a 18.57,18.57 0 0 1 -3.17,0.1 h -82.43 c -0.75,0 -1.51,0 -2.27,0 a 7.15,7.15 0 0 1 -7.31,-7.33 c 0,-0.84 0,-1.67 0,-2.5 q 0,-74.81 0,-149.6 c 0,-18 -0.06,-35.92 -0.09,-53.88 q -0.06,-37 -0.09,-74.11 c 0,-6 0.06,-12 0.09,-18 0,-0.83 0,-1.66 -0.07,-2.49 -0.34,-4.75 2.19,-7.89 6.86,-8.45 a 20.75,20.75 0 0 1 2.49,-0.11 l 80,-0.06 c 1.89,0 3.78,0 5.68,0.06 0.45,0 0.91,0 1.35,0.08 5,0.58 7.13,2.91 7.13,7.94 q 0,36.71 -0.07,73.43 0,36.38 0,72.75 z"
       id="path176" />
    <path
       class="cls-1"
       d="m 480.61,427.65 c 0,-13.64 0,-27.27 0,-40.91 q -0.06,-30.35 -0.16,-60.69 a 31.16,31.16 0 0 1 0.31,-4.53 6.51,6.51 0 0 1 5.95,-5.93 27.64,27.64 0 0 1 4.07,-0.26 c 10.9,0 21.8,0 32.7,0 q 25.11,0 50.2,-0.08 a 29.3,29.3 0 0 1 3.62,0.21 c 4.49,0.56 7.14,3.7 7.12,8.18 0,7.35 0.06,14.69 0.05,22 0,7.5 -0.13,15 -0.15,22.5 q -0.08,20.34 -0.09,40.68 c 0,3.33 0.23,6.67 0.23,10 0,2 -0.27,3.92 -0.39,5.88 0,0.68 0,1.36 0,2 0,2.41 0,4.83 0,7.24 a 12.22,12.22 0 0 0 -0.1,1.8 c 0.89,6.65 0.49,13.31 0.44,20 0,6.89 0.05,13.79 0.05,20.68 q 0,26.71 -0.1,53.42 a 24.12,24.12 0 0 1 -0.53,4.72 5.6,5.6 0 0 1 -4.67,4.69 33.57,33.57 0 0 1 -6.08,0.58 q -41.67,0 -83.35,-0.05 a 20.41,20.41 0 0 1 -3.82,-0.43 c -3.07,-0.59 -4.68,-2.61 -5.14,-5.6 a 28.12,28.12 0 0 1 -0.34,-4.3 q 0,-27 0.07,-54.1 0,-23.86 0,-47.73 z"
       id="path178" />
    <path
       class="cls-1"
       d="m 450,464.26 q 0,33.54 0,67.06 a 10.52,10.52 0 0 1 -1.54,5.39 5.94,5.94 0 0 1 -4.81,3 c -0.9,0.09 -1.81,0.07 -2.72,0.07 l -66.32,-0.12 c -4.39,0 -8.78,-0.11 -13.17,-0.13 -1.06,0 -2.12,0.08 -3.17,0.16 a 17.86,17.86 0 0 1 -7.61,-0.79 6.26,6.26 0 0 1 -4.37,-5.55 33.22,33.22 0 0 1 -0.16,-3.86 q 0,-52.29 0,-104.58 c 0,-7.19 -0.25,-14.39 -0.22,-21.58 a 53.44,53.44 0 0 1 0.8,-9 c 0.7,-4 2.8,-5.61 7,-5.75 3.48,-0.12 7,-0.12 10.44,-0.12 h 64.74 c 4.09,0 8.17,0.05 12.26,0.09 6.25,0 8.81,2.56 8.82,8.89 0,12.66 -0.05,25.31 -0.06,38 q 0,14.44 0,28.87 z"
       id="path180" />
    <path
       class="cls-1"
       d="m 666.82,539.83 h -43.16 c -0.61,0 -1.21,0 -1.82,-0.05 -3.66,-0.28 -6.09,-2.34 -6.68,-6 a 37.69,37.69 0 0 1 -0.31,-6.11 c 0,-9.17 0.22,-18.34 0.24,-27.51 0.02,-9.17 -0.13,-18.49 -0.17,-27.73 q -0.06,-11.94 0,-23.87 a 13.81,13.81 0 0 1 0.36,-2.93 6.2,6.2 0 0 1 4.74,-5 14,14 0 0 1 3.59,-0.47 q 43.27,0 86.55,0 a 15.41,15.41 0 0 1 2.71,0.23 c 4,0.73 5.91,3 6,7 0.05,4.85 0,9.7 0,14.55 q 0,24.89 -0.12,49.78 c 0,4.17 0.06,8.33 0,12.49 0,1.59 -0.18,3.17 -0.27,4.76 a 12.09,12.09 0 0 0 0,2.25 c 0.71,5.06 -2.85,8.56 -7.56,8.52 -14.72,0.01 -29.41,0.09 -44.1,0.09 z"
       id="path182" />
  </g>
  <metadata
     id="metadata254">
    <rdf:RDF>
      <cc:Work
         rdf:about="">
        <dc:title>spotify</dc:title>
      </cc:Work>
    </rdf:RDF>
  </metadata>
</svg>
