<svg id="svg" xmlns="http://www.w3.org/2000/svg" xmlns:xlink="http://www.w3.org/1999/xlink" width="400" height="400" viewBox="0, 0, 400,400"><g id="svgg"><path id="path0" d="M106.420 101.299 C 101.476 103.736,99.134 109.468,100.348 116.161 C 100.827 118.804,105.445 123.705,141.254 159.570 L 181.620 200.000 141.287 240.430 C 97.948 283.873,98.494 283.223,99.642 290.055 C 100.368 294.377,105.359 299.538,109.559 300.311 C 116.778 301.639,115.689 302.544,159.570 258.739 L 200.000 218.380 240.430 258.746 C 284.319 302.566,282.205 300.811,289.857 299.785 C 297.613 298.745,302.142 290.242,299.183 282.277 C 298.733 281.067,280.382 262.077,258.365 240.039 L 218.365 200.000 258.320 159.961 C 301.096 117.095,300.000 118.333,300.000 112.865 C 300.000 103.801,293.321 98.628,283.839 100.348 C 281.196 100.827,276.295 105.445,240.426 141.258 L 199.993 181.628 159.957 141.631 C 137.921 119.617,118.933 101.267,117.723 100.817 C 114.521 99.628,109.366 99.847,106.420 101.299 " stroke="none" fill="#000000" fill-rule="evenodd"></path></g></svg>