<svg id="svg" xmlns="http://www.w3.org/2000/svg" xmlns:xlink="http://www.w3.org/1999/xlink" width="400" height="400" viewBox="0, 0, 400,400"><g id="svgg"><path id="path0" d="M30.657 76.558 C 22.949 81.258,22.949 93.742,30.657 98.442 C 34.670 100.889,365.330 100.889,369.343 98.442 C 377.051 93.742,377.051 81.258,369.343 76.558 C 365.330 74.111,34.670 74.111,30.657 76.558 M30.657 189.058 C 22.949 193.758,22.949 206.242,30.657 210.942 C 34.668 213.387,315.332 213.387,319.343 210.942 C 327.051 206.242,327.051 193.758,319.343 189.058 C 315.332 186.613,34.668 186.613,30.657 189.058 M30.657 301.558 C 22.949 306.258,22.949 318.742,30.657 323.442 C 34.656 325.880,202.844 325.880,206.843 323.442 C 214.551 318.742,214.551 306.258,206.843 301.558 C 202.844 299.120,34.656 299.120,30.657 301.558 " stroke="none" fill="#000000" fill-rule="evenodd"></path></g></svg>